<svg width="360" height="800" viewBox="0 0 360 800" fill="none" xmlns="http://www.w3.org/2000/svg">
<g clip-path="url(#clip0_228_352)">
<path d="M607.906 123.959L572.508 103.878C537.11 83.7969 466.315 43.6347 409.071 62.435C351.828 81.2354 308.137 158.998 248.43 167.078C188.722 175.158 112.999 113.555 54.5235 126.995C-3.95179 140.435 -45.1789 228.919 -101.19 253.079C-157.202 277.24 -227.997 237.078 -285.24 255.878C-342.484 274.678 -386.175 352.441 -444.65 365.882C-503.125 379.322 -576.385 328.439 -641.02 315.078C-705.656 301.717 -761.667 325.878 -823.838 323.237C-886.01 320.596 -954.341 291.155 -1011.58 309.955C-1068.83 328.755 -1114.98 395.798 -1172.23 414.598C-1229.47 433.399 -1297.8 403.957 -1359.97 401.316C-1422.14 398.676 -1478.15 422.836 -1536.63 436.277C-1595.11 449.717 -1656.04 452.436 -1715.75 460.516C-1775.46 468.596 -1833.93 482.036 -1886.25 522.278C-1938.57 562.519 -1984.72 629.561 -2034.57 680.523C-2084.42 731.485 -2137.97 766.366 -2201.37 758.365C-2264.78 750.364 -2338.04 699.482 -2398.98 702.201C-2459.92 704.921 -2508.53 761.243 -2569.47 763.963C-2630.41 766.682 -2703.67 715.8 -2762.15 729.24C-2820.62 742.68 -2864.31 820.443 -2920.33 844.604C-2976.34 868.764 -3044.67 839.322 -3104.38 847.402C-3164.08 855.482 -3215.17 901.084 -3274.87 909.164C-3334.58 917.244 -3402.91 887.802 -3456.46 922.683C-3510.01 957.564 -3548.77 1056.77 -3568.15 1106.37L-3587.53 1155.97L-3661.45 834.358L-3632.22 827.638C-3602.98 820.918 -3544.5 807.477 -3486.03 794.037C-3427.55 780.597 -3369.08 767.157 -3310.6 753.717C-3252.13 740.277 -3193.65 726.837 -3135.18 713.396C-3076.7 699.956 -3018.23 686.516 -2959.75 673.076C-2901.27 659.636 -2842.8 646.196 -2784.32 632.756C-2725.85 619.315 -2667.37 605.875 -2608.9 592.435C-2550.42 578.995 -2491.95 565.555 -2433.47 552.115C-2375 538.675 -2316.52 525.235 -2258.05 511.794C-2199.57 498.354 -2141.1 484.914 -2082.62 471.474C-2024.14 458.034 -1965.67 444.594 -1907.19 431.154C-1848.72 417.713 -1790.24 404.273 -1731.77 390.833C-1673.29 377.393 -1614.82 363.953 -1556.34 350.513C-1497.87 337.073 -1439.39 323.632 -1380.92 310.192C-1322.44 296.752 -1263.97 283.312 -1205.49 269.872C-1147.02 256.432 -1088.54 242.992 -1030.06 229.551C-971.589 216.111 -913.114 202.671 -854.639 189.231C-796.163 175.791 -737.688 162.351 -679.213 148.911C-620.737 135.47 -562.262 122.03 -503.787 108.59C-445.311 95.1501 -386.836 81.7099 -328.361 68.2698C-269.885 54.8297 -211.41 41.3895 -152.935 27.9494C-94.4594 14.5093 -35.9841 1.06911 22.4912 -12.371C80.9665 -25.8112 139.442 -39.2513 197.917 -52.6914C256.392 -66.1316 314.868 -79.5717 373.343 -93.0119C431.818 -106.452 490.294 -119.892 519.531 -126.612L548.769 -133.332L607.906 123.959Z" fill="#3692FA"/>
</g>
<g filter="url(#filter0_d_228_352)">
<g clip-path="url(#clip1_228_352)">
<path d="M607.906 72.9591L572.508 52.878C537.11 32.7969 466.315 -7.36534 409.071 11.435C351.828 30.2354 308.137 107.998 248.43 116.078C188.722 124.158 112.999 62.555 54.5235 75.9952C-3.95179 89.4353 -45.1789 177.919 -101.19 202.079C-157.202 226.24 -227.997 186.078 -285.24 204.878C-342.484 223.678 -386.175 301.441 -444.65 314.882C-503.125 328.322 -576.385 277.439 -641.02 264.078C-705.656 250.717 -761.667 274.878 -823.838 272.237C-886.01 269.596 -954.341 240.155 -1011.58 258.955C-1068.83 277.755 -1114.98 344.798 -1172.23 363.598C-1229.47 382.399 -1297.8 352.957 -1359.97 350.316C-1422.14 347.676 -1478.15 371.836 -1536.63 385.277C-1595.11 398.717 -1656.04 401.436 -1715.75 409.516C-1775.46 417.596 -1833.93 431.036 -1886.25 471.278C-1938.57 511.519 -1984.72 578.561 -2034.57 629.523C-2084.42 680.485 -2137.97 715.366 -2201.37 707.365C-2264.78 699.364 -2338.04 648.482 -2398.98 651.201C-2459.92 653.921 -2508.53 710.243 -2569.47 712.963C-2630.41 715.682 -2703.67 664.8 -2762.15 678.24C-2820.62 691.68 -2864.31 769.443 -2920.33 793.604C-2976.34 817.764 -3044.67 788.322 -3104.38 796.402C-3164.08 804.482 -3215.17 850.084 -3274.87 858.164C-3334.58 866.244 -3402.91 836.802 -3456.46 871.683C-3510.01 906.564 -3548.77 1005.77 -3568.15 1055.37L-3587.53 1104.97L-3661.45 783.358L-3632.22 776.638C-3602.98 769.918 -3544.5 756.477 -3486.03 743.037C-3427.55 729.597 -3369.08 716.157 -3310.6 702.717C-3252.13 689.277 -3193.65 675.837 -3135.18 662.396C-3076.7 648.956 -3018.23 635.516 -2959.75 622.076C-2901.27 608.636 -2842.8 595.196 -2784.32 581.756C-2725.85 568.315 -2667.37 554.875 -2608.9 541.435C-2550.42 527.995 -2491.95 514.555 -2433.47 501.115C-2375 487.675 -2316.52 474.235 -2258.05 460.794C-2199.57 447.354 -2141.1 433.914 -2082.62 420.474C-2024.14 407.034 -1965.67 393.594 -1907.19 380.154C-1848.72 366.713 -1790.24 353.273 -1731.77 339.833C-1673.29 326.393 -1614.82 312.953 -1556.34 299.513C-1497.87 286.073 -1439.39 272.632 -1380.92 259.192C-1322.44 245.752 -1263.97 232.312 -1205.49 218.872C-1147.02 205.432 -1088.54 191.992 -1030.06 178.551C-971.589 165.111 -913.114 151.671 -854.639 138.231C-796.163 124.791 -737.688 111.351 -679.213 97.9106C-620.737 84.4705 -562.262 71.0304 -503.787 57.5902C-445.311 44.1501 -386.836 30.7099 -328.361 17.2698C-269.885 3.82967 -211.41 -9.61047 -152.935 -23.0506C-94.4594 -36.4907 -35.9841 -49.9309 22.4912 -63.371C80.9665 -76.8112 139.442 -90.2513 197.917 -103.691C256.392 -117.132 314.868 -130.572 373.343 -144.012C431.818 -157.452 490.294 -170.892 519.531 -177.612L548.769 -184.332L607.906 72.9591Z" fill="#144379" fill-opacity="0.8"/>
</g>
</g>
<g clip-path="url(#clip2_228_352)">
<path d="M682.544 690.886L647.147 710.967C611.749 731.049 540.953 771.211 483.71 752.41C426.467 733.61 382.776 655.847 323.068 647.767C263.361 639.687 187.638 701.29 129.162 687.85C70.6869 674.41 29.4597 585.927 -26.5516 561.766C-82.5628 537.605 -153.358 577.768 -210.602 558.967C-267.845 540.167 -311.536 462.404 -370.011 448.964C-428.487 435.524 -501.746 486.406 -566.382 499.767C-631.017 513.129 -687.028 488.968 -749.2 491.608C-811.371 494.249 -879.702 523.691 -936.946 504.89C-994.189 486.09 -1040.34 419.048 -1097.59 400.247C-1154.83 381.447 -1223.16 410.889 -1285.33 413.529C-1347.5 416.17 -1403.52 392.009 -1461.99 378.569C-1520.47 365.129 -1581.41 362.409 -1641.11 354.329C-1700.82 346.249 -1759.3 332.809 -1811.61 292.568C-1863.93 252.327 -1910.08 185.284 -1959.93 134.322C-2009.78 83.3604 -2063.33 48.4794 -2126.73 56.4802C-2190.14 64.481 -2263.4 115.364 -2324.34 112.644C-2385.28 109.924 -2433.9 53.6023 -2494.84 50.8827C-2555.77 48.163 -2629.03 99.0457 -2687.51 85.6056C-2745.98 72.1654 -2789.68 -5.59755 -2845.69 -29.7582C-2901.7 -53.9188 -2970.03 -24.477 -3029.74 -32.5569C-3089.44 -40.6368 -3140.53 -86.2384 -3200.23 -94.3183C-3259.94 -102.398 -3328.27 -72.9564 -3381.82 -107.838C-3435.37 -142.719 -3474.13 -241.923 -3493.51 -291.524L-3512.89 -341.126L-3586.82 -19.5122L-3557.58 -12.7921C-3528.34 -6.07208 -3469.86 7.36806 -3411.39 20.8082C-3352.91 34.2483 -3294.44 47.6885 -3235.96 61.1286C-3177.49 74.5687 -3119.01 88.0089 -3060.54 101.449C-3002.06 114.889 -2943.59 128.329 -2885.11 141.769C-2826.64 155.21 -2768.16 168.65 -2709.69 182.09C-2651.21 195.53 -2592.73 208.97 -2534.26 222.41C-2475.78 235.85 -2417.31 249.291 -2358.83 262.731C-2300.36 276.171 -2241.88 289.611 -2183.41 303.051C-2124.93 316.491 -2066.46 329.931 -2007.98 343.372C-1949.51 356.812 -1891.03 370.252 -1832.56 383.692C-1774.08 397.132 -1715.6 410.572 -1657.13 424.012C-1598.65 437.452 -1540.18 450.893 -1481.7 464.333C-1423.23 477.773 -1364.75 491.213 -1306.28 504.653C-1247.8 518.093 -1189.33 531.533 -1130.85 544.974C-1072.38 558.414 -1013.9 571.854 -955.426 585.294C-896.951 598.734 -838.475 612.174 -780 625.614C-721.525 639.055 -663.049 652.495 -604.574 665.935C-546.099 679.375 -487.623 692.815 -429.148 706.255C-370.673 719.695 -312.197 733.136 -253.722 746.576C-195.247 760.016 -136.771 773.456 -78.2961 786.896C-19.8208 800.336 38.6546 813.776 97.1299 827.216C155.605 840.657 214.081 854.097 272.556 867.537C331.031 880.977 389.506 894.417 447.982 907.857C506.457 921.297 564.932 934.738 594.17 941.458L623.408 948.178L682.544 690.886Z" fill="#3692FA"/>
</g>
<g filter="url(#filter1_d_228_352)">
<g clip-path="url(#clip3_228_352)">
<path d="M660.906 732.554L625.508 752.635C590.11 772.717 519.315 812.879 462.071 794.078C404.828 775.278 361.137 697.515 301.43 689.435C241.722 681.355 165.999 742.958 107.524 729.518C49.0482 716.078 7.82107 627.595 -48.1902 603.434C-104.202 579.273 -174.997 619.436 -232.24 600.635C-289.484 581.835 -333.175 504.072 -391.65 490.632C-450.125 477.192 -523.385 528.074 -588.02 541.435C-652.656 554.796 -708.667 530.636 -770.838 533.276C-833.01 535.917 -901.341 565.359 -958.584 546.558C-1015.83 527.758 -1061.98 460.716 -1119.23 441.915C-1176.47 423.115 -1244.8 452.557 -1306.97 455.197C-1369.14 457.838 -1425.15 433.677 -1483.63 420.237C-1542.11 406.797 -1603.04 404.077 -1662.75 395.997C-1722.46 387.917 -1780.93 374.477 -1833.25 334.236C-1885.57 293.995 -1931.72 226.952 -1981.57 175.99C-2031.42 125.028 -2084.97 90.1473 -2148.37 98.1481C-2211.78 106.149 -2285.04 157.032 -2345.98 154.312C-2406.92 151.592 -2455.53 95.2703 -2516.47 92.5506C-2577.41 89.831 -2650.67 140.714 -2709.15 127.274C-2767.62 113.833 -2811.31 36.0704 -2867.33 11.9098C-2923.34 -12.2508 -2991.67 17.191 -3051.38 9.11106C-3111.08 1.03116 -3162.17 -44.5704 -3221.87 -52.6503C-3281.58 -60.7302 -3349.91 -31.2884 -3403.46 -66.1695C-3457.01 -101.051 -3495.77 -200.255 -3515.15 -249.857L-3534.53 -299.458L-3608.45 22.1558L-3579.22 28.8758C-3549.98 35.5959 -3491.5 49.036 -3433.03 62.4762C-3374.55 75.9163 -3316.08 89.3564 -3257.6 102.797C-3199.13 116.237 -3140.65 129.677 -3082.18 143.117C-3023.7 156.557 -2965.23 169.997 -2906.75 183.437C-2848.27 196.878 -2789.8 210.318 -2731.32 223.758C-2672.85 237.198 -2614.37 250.638 -2555.9 264.078C-2497.42 277.518 -2438.95 290.959 -2380.47 304.399C-2322 317.839 -2263.52 331.279 -2205.05 344.719C-2146.57 358.159 -2088.1 371.599 -2029.62 385.039C-1971.14 398.48 -1912.67 411.92 -1854.19 425.36C-1795.72 438.8 -1737.24 452.24 -1678.77 465.68C-1620.29 479.12 -1561.82 492.561 -1503.34 506.001C-1444.87 519.441 -1386.39 532.881 -1327.92 546.321C-1269.44 559.761 -1210.97 573.201 -1152.49 586.642C-1094.02 600.082 -1035.54 613.522 -977.065 626.962C-918.589 640.402 -860.114 653.842 -801.639 667.282C-743.163 680.723 -684.688 694.163 -626.213 707.603C-567.737 721.043 -509.262 734.483 -450.787 747.923C-392.311 761.363 -333.836 774.803 -275.361 788.244C-216.885 801.684 -158.41 815.124 -99.9348 828.564C-41.4594 842.004 17.0159 855.444 75.4912 868.884C133.967 882.325 192.442 895.765 250.917 909.205C309.392 922.645 367.868 936.085 426.343 949.525C484.818 962.965 543.294 976.406 572.531 983.126L601.769 989.846L660.906 732.554Z" fill="#144379" fill-opacity="0.8"/>
</g>
</g>
<defs>
<filter id="filter0_d_228_352" x="-858.639" y="-184.332" width="1485.33" height="652.177" filterUnits="userSpaceOnUse" color-interpolation-filters="sRGB">
<feFlood flood-opacity="0" result="BackgroundImageFix"/>
<feColorMatrix in="SourceAlpha" type="matrix" values="0 0 0 0 0 0 0 0 0 0 0 0 0 0 0 0 0 0 127 0" result="hardAlpha"/>
<feOffset dy="4"/>
<feGaussianBlur stdDeviation="2"/>
<feComposite in2="hardAlpha" operator="out"/>
<feColorMatrix type="matrix" values="0 0 0 0 0 0 0 0 0 0 0 0 0 0 0 0 0 0 0.25 0"/>
<feBlend mode="normal" in2="BackgroundImageFix" result="effect1_dropShadow_228_352"/>
<feBlend mode="normal" in="SourceGraphic" in2="effect1_dropShadow_228_352" result="shape"/>
</filter>
<filter id="filter1_d_228_352" x="-820" y="283" width="1514.05" height="777.513" filterUnits="userSpaceOnUse" color-interpolation-filters="sRGB">
<feFlood flood-opacity="0" result="BackgroundImageFix"/>
<feColorMatrix in="SourceAlpha" type="matrix" values="0 0 0 0 0 0 0 0 0 0 0 0 0 0 0 0 0 0 127 0" result="hardAlpha"/>
<feOffset dy="4"/>
<feGaussianBlur stdDeviation="2"/>
<feComposite in2="hardAlpha" operator="out"/>
<feColorMatrix type="matrix" values="0 0 0 0 0 0 0 0 0 0 0 0 0 0 0 0 0 0 0.25 0"/>
<feBlend mode="normal" in2="BackgroundImageFix" result="effect1_dropShadow_228_352"/>
<feBlend mode="normal" in="SourceGraphic" in2="effect1_dropShadow_228_352" result="shape"/>
</filter>
<clipPath id="clip0_228_352">
<rect width="1440" height="330" fill="white" transform="translate(622.69 188.282) rotate(167.056)"/>
</clipPath>
<clipPath id="clip1_228_352">
<rect width="1440" height="330" fill="white" transform="translate(622.69 137.282) rotate(167.056)"/>
</clipPath>
<clipPath id="clip2_228_352">
<rect width="1440" height="330" fill="white" transform="matrix(-0.974589 -0.224002 -0.224002 0.974589 697.328 626.563)"/>
</clipPath>
<clipPath id="clip3_228_352">
<rect width="1440" height="330" fill="white" transform="matrix(-0.974589 -0.224002 -0.224002 0.974589 675.69 668.231)"/>
</clipPath>
</defs>
</svg>
