<svg width="360" height="574" viewBox="0 0 360 574" fill="none" xmlns="http://www.w3.org/2000/svg">
<g clip-path="url(#clip0_276_352)">
<path d="M607.906 123.959L572.508 103.878C537.11 83.7969 466.315 43.6347 409.071 62.435C351.828 81.2354 308.137 158.998 248.43 167.078C188.722 175.158 112.999 113.555 54.5235 126.995C-3.95179 140.435 -45.1789 228.919 -101.19 253.079C-157.202 277.24 -227.997 237.078 -285.24 255.878C-342.484 274.678 -386.175 352.441 -444.65 365.882C-503.125 379.322 -576.385 328.439 -641.02 315.078C-705.656 301.717 -761.667 325.878 -823.838 323.237C-886.01 320.596 -954.341 291.155 -1011.58 309.955C-1068.83 328.755 -1114.98 395.798 -1172.23 414.598C-1229.47 433.399 -1297.8 403.957 -1359.97 401.316C-1422.14 398.676 -1478.15 422.836 -1536.63 436.277C-1595.11 449.717 -1656.04 452.436 -1715.75 460.516C-1775.46 468.596 -1833.93 482.036 -1886.25 522.278C-1938.57 562.519 -1984.72 629.561 -2034.57 680.523C-2084.42 731.485 -2137.97 766.366 -2201.37 758.365C-2264.78 750.364 -2338.04 699.482 -2398.98 702.201C-2459.92 704.921 -2508.53 761.243 -2569.47 763.963C-2630.41 766.682 -2703.67 715.8 -2762.15 729.24C-2820.62 742.68 -2864.31 820.443 -2920.33 844.604C-2976.34 868.764 -3044.67 839.322 -3104.38 847.402C-3164.08 855.482 -3215.17 901.084 -3274.87 909.164C-3334.58 917.244 -3402.91 887.802 -3456.46 922.683C-3510.01 957.564 -3548.77 1056.77 -3568.15 1106.37L-3587.53 1155.97L-3661.45 834.358L-3632.22 827.638C-3602.98 820.918 -3544.5 807.477 -3486.03 794.037C-3427.55 780.597 -3369.08 767.157 -3310.6 753.717C-3252.13 740.277 -3193.65 726.837 -3135.18 713.396C-3076.7 699.956 -3018.23 686.516 -2959.75 673.076C-2901.27 659.636 -2842.8 646.196 -2784.32 632.756C-2725.85 619.315 -2667.37 605.875 -2608.9 592.435C-2550.42 578.995 -2491.95 565.555 -2433.47 552.115C-2375 538.675 -2316.52 525.235 -2258.05 511.794C-2199.57 498.354 -2141.1 484.914 -2082.62 471.474C-2024.14 458.034 -1965.67 444.594 -1907.19 431.154C-1848.72 417.713 -1790.24 404.273 -1731.77 390.833C-1673.29 377.393 -1614.82 363.953 -1556.34 350.513C-1497.87 337.073 -1439.39 323.632 -1380.92 310.192C-1322.44 296.752 -1263.97 283.312 -1205.49 269.872C-1147.02 256.432 -1088.54 242.992 -1030.06 229.551C-971.589 216.111 -913.114 202.671 -854.639 189.231C-796.163 175.791 -737.688 162.351 -679.213 148.911C-620.737 135.47 -562.262 122.03 -503.787 108.59C-445.311 95.1501 -386.836 81.7099 -328.361 68.2698C-269.885 54.8297 -211.41 41.3895 -152.935 27.9494C-94.4594 14.5093 -35.9841 1.06911 22.4912 -12.371C80.9665 -25.8112 139.442 -39.2513 197.917 -52.6914C256.392 -66.1316 314.868 -79.5717 373.343 -93.0119C431.818 -106.452 490.294 -119.892 519.531 -126.612L548.769 -133.332L607.906 123.959Z" fill="#3692FA"/>
</g>
<g filter="url(#filter0_d_276_352)">
<g clip-path="url(#clip1_276_352)">
<path d="M607.906 72.9591L572.508 52.878C537.11 32.7969 466.315 -7.36534 409.071 11.435C351.828 30.2354 308.137 107.998 248.43 116.078C188.722 124.158 112.999 62.555 54.5235 75.9952C-3.95179 89.4353 -45.1789 177.919 -101.19 202.079C-157.202 226.24 -227.997 186.078 -285.24 204.878C-342.484 223.678 -386.175 301.441 -444.65 314.882C-503.125 328.322 -576.385 277.439 -641.02 264.078C-705.656 250.717 -761.667 274.878 -823.838 272.237C-886.01 269.596 -954.341 240.155 -1011.58 258.955C-1068.83 277.755 -1114.98 344.798 -1172.23 363.598C-1229.47 382.399 -1297.8 352.957 -1359.97 350.316C-1422.14 347.676 -1478.15 371.836 -1536.63 385.277C-1595.11 398.717 -1656.04 401.436 -1715.75 409.516C-1775.46 417.596 -1833.93 431.036 -1886.25 471.278C-1938.57 511.519 -1984.72 578.561 -2034.57 629.523C-2084.42 680.485 -2137.97 715.366 -2201.37 707.365C-2264.78 699.364 -2338.04 648.482 -2398.98 651.201C-2459.92 653.921 -2508.53 710.243 -2569.47 712.963C-2630.41 715.682 -2703.67 664.8 -2762.15 678.24C-2820.62 691.68 -2864.31 769.443 -2920.33 793.604C-2976.34 817.764 -3044.67 788.322 -3104.38 796.402C-3164.08 804.482 -3215.17 850.084 -3274.87 858.164C-3334.58 866.244 -3402.91 836.802 -3456.46 871.683C-3510.01 906.564 -3548.77 1005.77 -3568.15 1055.37L-3587.53 1104.97L-3661.45 783.358L-3632.22 776.638C-3602.98 769.918 -3544.5 756.477 -3486.03 743.037C-3427.55 729.597 -3369.08 716.157 -3310.6 702.717C-3252.13 689.277 -3193.65 675.837 -3135.18 662.396C-3076.7 648.956 -3018.23 635.516 -2959.75 622.076C-2901.27 608.636 -2842.8 595.196 -2784.32 581.756C-2725.85 568.315 -2667.37 554.875 -2608.9 541.435C-2550.42 527.995 -2491.95 514.555 -2433.47 501.115C-2375 487.675 -2316.52 474.235 -2258.05 460.794C-2199.57 447.354 -2141.1 433.914 -2082.62 420.474C-2024.14 407.034 -1965.67 393.594 -1907.19 380.154C-1848.72 366.713 -1790.24 353.273 -1731.77 339.833C-1673.29 326.393 -1614.82 312.953 -1556.34 299.513C-1497.87 286.073 -1439.39 272.632 -1380.92 259.192C-1322.44 245.752 -1263.97 232.312 -1205.49 218.872C-1147.02 205.432 -1088.54 191.992 -1030.06 178.551C-971.589 165.111 -913.114 151.671 -854.639 138.231C-796.163 124.791 -737.688 111.351 -679.213 97.9106C-620.737 84.4705 -562.262 71.0304 -503.787 57.5902C-445.311 44.1501 -386.836 30.7099 -328.361 17.2698C-269.885 3.82967 -211.41 -9.61047 -152.935 -23.0506C-94.4594 -36.4907 -35.9841 -49.9309 22.4912 -63.371C80.9665 -76.8112 139.442 -90.2513 197.917 -103.691C256.392 -117.132 314.868 -130.572 373.343 -144.012C431.818 -157.452 490.294 -170.892 519.531 -177.612L548.769 -184.332L607.906 72.9591Z" fill="#144379" fill-opacity="0.8"/>
</g>
</g>
<path d="M78.1966 52L70.1816 27.5H76.0616L83.0266 49.2H80.0866L87.3666 27.5H92.6166L99.6166 49.2H96.7816L103.922 27.5H109.347L101.332 52H95.2416L89.0466 32.96H90.6566L84.2866 52H78.1966ZM120.071 52.28C117.924 52.28 116.034 51.86 114.401 51.02C112.791 50.18 111.542 49.0367 110.656 47.59C109.769 46.12 109.326 44.4517 109.326 42.585C109.326 40.695 109.757 39.0267 110.621 37.58C111.507 36.11 112.709 34.9667 114.226 34.15C115.742 33.31 117.457 32.89 119.371 32.89C121.214 32.89 122.871 33.2867 124.341 34.08C125.834 34.85 127.012 35.97 127.876 37.44C128.739 38.8867 129.171 40.625 129.171 42.655C129.171 42.865 129.159 43.11 129.136 43.39C129.112 43.6467 129.089 43.8917 129.066 44.125H113.771V40.94H126.196L124.096 41.885C124.096 40.905 123.897 40.0533 123.501 39.33C123.104 38.6067 122.556 38.0467 121.856 37.65C121.156 37.23 120.339 37.02 119.406 37.02C118.472 37.02 117.644 37.23 116.921 37.65C116.221 38.0467 115.672 38.6183 115.276 39.365C114.879 40.0883 114.681 40.9517 114.681 41.955V42.795C114.681 43.8217 114.902 44.7317 115.346 45.525C115.812 46.295 116.454 46.89 117.271 47.31C118.111 47.7067 119.091 47.905 120.211 47.905C121.214 47.905 122.089 47.7533 122.836 47.45C123.606 47.1467 124.306 46.6917 124.936 46.085L127.841 49.235C126.977 50.215 125.892 50.9733 124.586 51.51C123.279 52.0233 121.774 52.28 120.071 52.28ZM132.806 52V26.03H138.266V52H132.806ZM152.433 52.28C150.403 52.28 148.595 51.8717 147.008 51.055C145.421 50.215 144.173 49.06 143.263 47.59C142.376 46.12 141.933 44.4517 141.933 42.585C141.933 40.695 142.376 39.0267 143.263 37.58C144.173 36.11 145.421 34.9667 147.008 34.15C148.595 33.31 150.403 32.89 152.433 32.89C154.416 32.89 156.143 33.31 157.613 34.15C159.083 34.9667 160.168 36.145 160.868 37.685L156.633 39.96C156.143 39.0733 155.525 38.42 154.778 38C154.055 37.58 153.261 37.37 152.398 37.37C151.465 37.37 150.625 37.58 149.878 38C149.131 38.42 148.536 39.015 148.093 39.785C147.673 40.555 147.463 41.4883 147.463 42.585C147.463 43.6817 147.673 44.615 148.093 45.385C148.536 46.155 149.131 46.75 149.878 47.17C150.625 47.59 151.465 47.8 152.398 47.8C153.261 47.8 154.055 47.6017 154.778 47.205C155.525 46.785 156.143 46.12 156.633 45.21L160.868 47.52C160.168 49.0367 159.083 50.215 157.613 51.055C156.143 51.8717 154.416 52.28 152.433 52.28ZM172.732 52.28C170.726 52.28 168.941 51.86 167.377 51.02C165.837 50.18 164.612 49.0367 163.702 47.59C162.816 46.12 162.372 44.4517 162.372 42.585C162.372 40.695 162.816 39.0267 163.702 37.58C164.612 36.11 165.837 34.9667 167.377 34.15C168.941 33.31 170.726 32.89 172.732 32.89C174.716 32.89 176.489 33.31 178.052 34.15C179.616 34.9667 180.841 36.0983 181.727 37.545C182.614 38.9917 183.057 40.6717 183.057 42.585C183.057 44.4517 182.614 46.12 181.727 47.59C180.841 49.0367 179.616 50.18 178.052 51.02C176.489 51.86 174.716 52.28 172.732 52.28ZM172.732 47.8C173.642 47.8 174.459 47.59 175.182 47.17C175.906 46.75 176.477 46.155 176.897 45.385C177.317 44.5917 177.527 43.6583 177.527 42.585C177.527 41.4883 177.317 40.555 176.897 39.785C176.477 39.015 175.906 38.42 175.182 38C174.459 37.58 173.642 37.37 172.732 37.37C171.822 37.37 171.006 37.58 170.282 38C169.559 38.42 168.976 39.015 168.532 39.785C168.112 40.555 167.902 41.4883 167.902 42.585C167.902 43.6583 168.112 44.5917 168.532 45.385C168.976 46.155 169.559 46.75 170.282 47.17C171.006 47.59 171.822 47.8 172.732 47.8ZM210.822 32.89C212.315 32.89 213.634 33.1933 214.777 33.8C215.944 34.3833 216.854 35.2933 217.507 36.53C218.184 37.7433 218.522 39.3067 218.522 41.22V52H213.062V42.06C213.062 40.5433 212.747 39.4233 212.117 38.7C211.487 37.9767 210.6 37.615 209.457 37.615C208.664 37.615 207.952 37.8017 207.322 38.175C206.692 38.525 206.202 39.0617 205.852 39.785C205.502 40.5083 205.327 41.43 205.327 42.55V52H199.867V42.06C199.867 40.5433 199.552 39.4233 198.922 38.7C198.315 37.9767 197.44 37.615 196.297 37.615C195.504 37.615 194.792 37.8017 194.162 38.175C193.532 38.525 193.042 39.0617 192.692 39.785C192.342 40.5083 192.167 41.43 192.167 42.55V52H186.707V33.17H191.922V38.315L190.942 36.81C191.595 35.5267 192.517 34.5583 193.707 33.905C194.92 33.2283 196.297 32.89 197.837 32.89C199.564 32.89 201.069 33.3333 202.352 34.22C203.659 35.0833 204.522 36.4133 204.942 38.21L203.017 37.685C203.647 36.215 204.65 35.0483 206.027 34.185C207.427 33.3217 209.025 32.89 210.822 32.89ZM232.898 52.28C230.751 52.28 228.861 51.86 227.228 51.02C225.618 50.18 224.369 49.0367 223.483 47.59C222.596 46.12 222.153 44.4517 222.153 42.585C222.153 40.695 222.584 39.0267 223.448 37.58C224.334 36.11 225.536 34.9667 227.053 34.15C228.569 33.31 230.284 32.89 232.198 32.89C234.041 32.89 235.698 33.2867 237.168 34.08C238.661 34.85 239.839 35.97 240.703 37.44C241.566 38.8867 241.998 40.625 241.998 42.655C241.998 42.865 241.986 43.11 241.963 43.39C241.939 43.6467 241.916 43.8917 241.893 44.125H226.598V40.94H239.023L236.923 41.885C236.923 40.905 236.724 40.0533 236.328 39.33C235.931 38.6067 235.383 38.0467 234.683 37.65C233.983 37.23 233.166 37.02 232.233 37.02C231.299 37.02 230.471 37.23 229.748 37.65C229.048 38.0467 228.499 38.6183 228.103 39.365C227.706 40.0883 227.508 40.9517 227.508 41.955V42.795C227.508 43.8217 227.729 44.7317 228.173 45.525C228.639 46.295 229.281 46.89 230.098 47.31C230.938 47.7067 231.918 47.905 233.038 47.905C234.041 47.905 234.916 47.7533 235.663 47.45C236.433 47.1467 237.133 46.6917 237.763 46.085L240.668 49.235C239.804 50.215 238.719 50.9733 237.413 51.51C236.106 52.0233 234.601 52.28 232.898 52.28ZM263.245 52.28C261.028 52.28 259.302 51.72 258.065 50.6C256.828 49.4567 256.21 47.765 256.21 45.525V29.005H261.67V45.455C261.67 46.2483 261.88 46.8667 262.3 47.31C262.72 47.73 263.292 47.94 264.015 47.94C264.878 47.94 265.613 47.7067 266.22 47.24L267.69 51.09C267.13 51.4867 266.453 51.79 265.66 52C264.89 52.1867 264.085 52.28 263.245 52.28ZM253.305 37.79V33.59H266.36V37.79H253.305ZM279.134 52.28C277.127 52.28 275.342 51.86 273.779 51.02C272.239 50.18 271.014 49.0367 270.104 47.59C269.217 46.12 268.774 44.4517 268.774 42.585C268.774 40.695 269.217 39.0267 270.104 37.58C271.014 36.11 272.239 34.9667 273.779 34.15C275.342 33.31 277.127 32.89 279.134 32.89C281.117 32.89 282.89 33.31 284.454 34.15C286.017 34.9667 287.242 36.0983 288.129 37.545C289.015 38.9917 289.459 40.6717 289.459 42.585C289.459 44.4517 289.015 46.12 288.129 47.59C287.242 49.0367 286.017 50.18 284.454 51.02C282.89 51.86 281.117 52.28 279.134 52.28ZM279.134 47.8C280.044 47.8 280.86 47.59 281.584 47.17C282.307 46.75 282.879 46.155 283.299 45.385C283.719 44.5917 283.929 43.6583 283.929 42.585C283.929 41.4883 283.719 40.555 283.299 39.785C282.879 39.015 282.307 38.42 281.584 38C280.86 37.58 280.044 37.37 279.134 37.37C278.224 37.37 277.407 37.58 276.684 38C275.96 38.42 275.377 39.015 274.934 39.785C274.514 40.555 274.304 41.4883 274.304 42.585C274.304 43.6583 274.514 44.5917 274.934 45.385C275.377 46.155 275.96 46.75 276.684 47.17C277.407 47.59 278.224 47.8 279.134 47.8ZM65.2417 83.7759C70.8927 83.2176 75.1652 82.9385 78.0591 82.9385C80.953 82.9385 83.243 83.1493 84.9292 83.5708C86.6268 83.9924 88.0225 84.6475 89.1162 85.5361C91.2354 87.2679 92.2949 90.1105 92.2949 94.064C92.2949 95.8413 91.9588 97.4705 91.2866 98.9517C90.6144 100.433 89.6973 101.703 88.5352 102.763C87.373 103.822 86.0116 104.648 84.4507 105.241C82.8898 105.833 81.2207 106.129 79.4434 106.129L76.4014 106.061V111H65.2417V83.7759ZM80.6396 90.0308C79.6598 90.0308 78.2243 90.7087 76.333 92.0645V98.5073L78.3325 97.5332C79.6541 96.8838 80.577 96.2629 81.1011 95.6704C82.0809 94.5653 82.5708 93.4658 82.5708 92.3721C82.5708 91.2783 82.2005 90.5549 81.46 90.2017C81.2207 90.0877 80.9473 90.0308 80.6396 90.0308ZM109.043 95.8413C109.043 94.8387 108.576 94.3374 107.642 94.3374C106.571 94.4399 105.876 94.9925 105.557 95.9951C105.397 96.4736 105.283 97.0319 105.215 97.6699C105.158 98.2965 105.067 98.9688 104.941 99.6865L108.684 98.8491L109.009 96.2344L109.043 95.8413ZM106.736 103.617C106.736 103.617 106.423 103.617 105.796 103.617C105.5 103.617 105.215 103.606 104.941 103.583C104.941 104.939 105.665 105.679 107.112 105.805C107.511 105.839 107.898 105.856 108.274 105.856C109.242 105.856 110.456 105.634 111.914 105.189C113.384 104.745 114.7 104.022 115.862 103.019L116.921 108.334C114.381 110.533 110.541 111.632 105.403 111.632C102.452 111.632 99.917 110.772 97.7979 109.052C95.4964 107.172 94.3457 104.569 94.3457 101.242C94.3457 98.7352 94.9951 96.485 96.2939 94.4912C97.5016 92.6683 99.1366 91.284 101.199 90.3384C103.261 89.3927 105.488 88.9199 107.881 88.9199C110.98 88.9199 113.321 89.5978 114.905 90.9536C116.5 92.3094 117.292 93.9842 117.28 95.978C117.28 97.9718 116.329 99.7435 114.426 101.293C112.524 102.842 109.96 103.617 106.736 103.617ZM136.079 97.7725C135.031 97.7725 133.954 98.1541 132.849 98.9175C131.744 99.6808 131.186 100.404 131.174 101.088V111H120.886V89.7573H131.174V92.0303C131.755 91.153 132.473 90.4523 133.328 89.9282C134.194 89.4041 135.111 89.0908 136.079 88.9883V97.7725ZM144.368 79.9136C146.042 79.9136 147.284 80.2668 148.093 80.9731C148.902 81.6681 149.301 82.5568 149.29 83.6392C149.29 84.7215 148.771 85.7184 147.734 86.6299C146.709 87.5413 145.336 87.9971 143.616 87.9971C141.2 87.9971 139.696 87.2679 139.104 85.8096C138.933 85.3994 138.848 84.9437 138.848 84.4424C138.848 83.9411 138.967 83.417 139.207 82.8701C139.446 82.3232 139.805 81.8333 140.283 81.4004C141.343 80.4092 142.704 79.9136 144.368 79.9136ZM148.999 111H139.104V89.7573H148.999V111ZM162.979 111.667C157.863 111.667 154.468 111.034 152.793 109.77V101.942C152.839 101.954 153.004 102.005 153.289 102.096C153.585 102.187 153.955 102.301 154.399 102.438C155.436 102.757 156.524 103.059 157.664 103.344C158.814 103.617 159.737 103.754 160.432 103.754C161.571 103.754 162.141 103.406 162.141 102.711C162.141 102.176 161.651 101.606 160.671 101.002C160.227 100.729 159.72 100.444 159.15 100.148C158.592 99.8517 158.022 99.5213 157.441 99.1567C156.017 98.2795 154.872 97.2541 154.006 96.0806C153.152 94.9071 152.725 93.4259 152.725 91.6372C152.725 87.7293 154.787 85.1032 158.911 83.7588C160.586 83.2119 162.517 82.9385 164.705 82.9385C166.903 82.9385 169.199 83.1891 171.592 83.6904C172.082 83.793 172.406 83.867 172.566 83.9126V91.7568C169.467 91.096 167.24 90.7656 165.884 90.7656C165.36 90.7656 164.967 90.8568 164.705 91.0391C164.443 91.2214 164.312 91.4264 164.312 91.6543C164.312 91.8822 164.425 92.1214 164.653 92.3721C164.881 92.6113 165.274 92.8563 165.833 93.1069C166.391 93.3462 167.04 93.6424 167.781 93.9956C168.533 94.3374 169.233 94.7077 169.883 95.1064C172.799 96.8952 174.258 99.339 174.258 102.438C174.258 105.377 173.267 107.65 171.284 109.257C169.279 110.852 166.51 111.655 162.979 111.667ZM192.578 95.8071C192.35 95.6932 192.054 95.6362 191.689 95.6362C191.336 95.6362 190.943 95.7445 190.51 95.9609C190.077 96.166 189.65 96.4508 189.229 96.8154C188.34 97.5902 187.594 98.5301 186.99 99.6353C186.386 100.74 186.084 101.76 186.084 102.694C186.084 103.617 186.437 104.238 187.144 104.557C187.394 104.671 187.702 104.728 188.066 104.728C188.431 104.728 188.813 104.62 189.211 104.403C189.61 104.175 190.009 103.874 190.408 103.498C191.239 102.711 191.969 101.76 192.595 100.644C193.222 99.5156 193.535 98.5073 193.535 97.6187C193.535 96.73 193.216 96.1261 192.578 95.8071ZM189.263 111.632C186.004 111.632 183.196 110.601 180.837 108.539C178.319 106.352 177.061 103.6 177.061 100.285C177.061 96.9578 178.24 94.2406 180.598 92.1328C182.957 90.0137 185.868 88.9541 189.331 88.9541C192.795 88.9541 195.706 89.9909 198.064 92.0645C200.422 94.1266 201.607 96.8895 201.619 100.353C201.63 102.575 201.066 104.54 199.927 106.249C198.787 107.958 197.266 109.28 195.364 110.214C193.461 111.148 191.427 111.621 189.263 111.632ZM215.085 99.6523C215.085 103.389 215.991 105.258 217.803 105.258C218.714 105.258 219.244 104.813 219.392 103.925C219.438 103.651 219.46 103.349 219.46 103.019V89.7573H229.612V111H224.006L221.562 107.667C220.116 109.639 218.025 110.92 215.291 111.513C211.941 112.23 209.241 111.661 207.19 109.804C205.64 108.402 204.866 106.551 204.866 104.25V89.7573H215.085V99.6523ZM248.906 97.7725C247.858 97.7725 246.781 98.1541 245.676 98.9175C244.571 99.6808 244.013 100.404 244.001 101.088V111H233.713V89.7573H244.001V92.0303C244.583 91.153 245.3 90.4523 246.155 89.9282C247.021 89.4041 247.938 89.0908 248.906 88.9883V97.7725ZM264.185 104.523C265.335 104.523 266.999 103.708 269.175 102.079V110.436C265.438 111.849 261.991 112.048 258.835 111.034C255.68 110.02 253.441 108.209 252.119 105.6C251.458 104.278 251.128 102.729 251.128 100.951C251.128 97.3737 252.358 94.4741 254.819 92.2524C257.28 90.0308 260.482 88.9199 264.424 88.9199C266.053 88.9199 267.523 89.1649 268.833 89.6548V96.2344C268.525 95.9723 268.092 95.8413 267.534 95.8413C266.976 95.8413 266.378 96.0179 265.74 96.3711C265.102 96.7243 264.521 97.1971 263.997 97.7896C262.789 99.1567 262.185 100.564 262.185 102.011C262.196 103.446 262.635 104.255 263.501 104.438C263.729 104.483 263.957 104.512 264.185 104.523ZM287.085 95.8413C287.085 94.8387 286.618 94.3374 285.684 94.3374C284.613 94.4399 283.918 94.9925 283.599 95.9951C283.439 96.4736 283.325 97.0319 283.257 97.6699C283.2 98.2965 283.109 98.9688 282.983 99.6865L286.726 98.8491L287.051 96.2344L287.085 95.8413ZM284.778 103.617C284.778 103.617 284.465 103.617 283.838 103.617C283.542 103.617 283.257 103.606 282.983 103.583C282.983 104.939 283.707 105.679 285.154 105.805C285.553 105.839 285.94 105.856 286.316 105.856C287.284 105.856 288.498 105.634 289.956 105.189C291.426 104.745 292.742 104.022 293.904 103.019L294.963 108.334C292.423 110.533 288.583 111.632 283.445 111.632C280.494 111.632 277.959 110.772 275.84 109.052C273.538 107.172 272.388 104.569 272.388 101.242C272.388 98.7352 273.037 96.485 274.336 94.4912C275.544 92.6683 277.179 91.284 279.241 90.3384C281.303 89.3927 283.53 88.9199 285.923 88.9199C289.022 88.9199 291.363 89.5978 292.947 90.9536C294.542 92.3094 295.334 93.9842 295.322 95.978C295.322 97.9718 294.371 99.7435 292.468 101.293C290.566 102.842 288.002 103.617 284.778 103.617Z" fill="white"/>
<defs>
<filter id="filter0_d_276_352" x="-858.639" y="-184.332" width="1485.33" height="652.177" filterUnits="userSpaceOnUse" color-interpolation-filters="sRGB">
<feFlood flood-opacity="0" result="BackgroundImageFix"/>
<feColorMatrix in="SourceAlpha" type="matrix" values="0 0 0 0 0 0 0 0 0 0 0 0 0 0 0 0 0 0 127 0" result="hardAlpha"/>
<feOffset dy="4"/>
<feGaussianBlur stdDeviation="2"/>
<feComposite in2="hardAlpha" operator="out"/>
<feColorMatrix type="matrix" values="0 0 0 0 0 0 0 0 0 0 0 0 0 0 0 0 0 0 0.25 0"/>
<feBlend mode="normal" in2="BackgroundImageFix" result="effect1_dropShadow_276_352"/>
<feBlend mode="normal" in="SourceGraphic" in2="effect1_dropShadow_276_352" result="shape"/>
</filter>
<clipPath id="clip0_276_352">
<rect width="1440" height="330" fill="white" transform="translate(622.69 188.282) rotate(167.056)"/>
</clipPath>
<clipPath id="clip1_276_352">
<rect width="1440" height="330" fill="white" transform="translate(622.69 137.282) rotate(167.056)"/>
</clipPath>
</defs>
</svg>
