<svg width="22" height="22" viewBox="0 0 22 22" fill="none" xmlns="http://www.w3.org/2000/svg">
<path d="M16 1V5.44444M6 1V5.44444M1 9.88889H21M4.75 13.2222H4.76625M8.51221 13.2222H8.51846M12.2622 13.2222H12.2685M16.0189 13.2222H16.0252M12.2689 16.5556H12.2752M4.76221 16.5556H4.76846M8.51221 16.5556H8.51846M1 5.44444C1 4.85507 1.26339 4.28984 1.73223 3.8731C2.20107 3.45635 2.83696 3.22222 3.5 3.22222H18.5C19.163 3.22222 19.7989 3.45635 20.2678 3.8731C20.7366 4.28984 21 4.85507 21 5.44444V18.7778C21 19.3671 20.7366 19.9324 20.2678 20.3491C19.7989 20.7659 19.163 21 18.5 21H3.5C2.83696 21 2.20107 20.7659 1.73223 20.3491C1.26339 19.9324 1 19.3671 1 18.7778V5.44444Z" stroke="#002366" stroke-width="1.5" stroke-linecap="round" stroke-linejoin="round"/>
</svg>
