<svg width="22" height="21" viewBox="0 0 22 21" fill="none" xmlns="http://www.w3.org/2000/svg">
<path d="M10.9998 17.9997L3.49981 10.5717C3.00512 10.0903 2.61546 9.5117 2.35536 8.87232C2.09527 8.23295 1.97037 7.54664 1.98855 6.85662C2.00673 6.1666 2.16758 5.48782 2.46097 4.86303C2.75436 4.23823 3.17395 3.68094 3.6933 3.22627C4.21265 2.77159 4.82052 2.42938 5.47862 2.22117C6.13673 2.01296 6.83082 1.94327 7.51718 2.01649C8.20354 2.08971 8.86731 2.30425 9.46669 2.64659C10.0661 2.98894 10.5881 3.45169 10.9998 4.00569C11.8025 2.95013 12.9916 2.25666 14.3056 2.07784C15.6196 1.89903 16.9508 2.24951 18.0063 3.05219C19.0619 3.85487 19.7553 5.04399 19.9342 6.35796C20.113 7.67194 19.7625 9.00313 18.9598 10.0587M15 17H21M18 14V20" stroke="#3692FA" stroke-width="2" stroke-linecap="round" stroke-linejoin="round"/>
</svg>
