<svg width="26" height="26" viewBox="0 0 26 26" fill="none" xmlns="http://www.w3.org/2000/svg">
<path id="Vector" d="M4 13C3.20435 13 2.44129 12.6839 1.87868 12.1213C1.31607 11.5587 1 10.7956 1 10C1 9.20435 1.31607 8.44129 1.87868 7.87868C2.44129 7.31607 3.20435 7 4 7M4 13C4.79565 13 5.55871 12.6839 6.12132 12.1213C6.68393 11.5587 7 10.7956 7 10C7 9.20435 6.68393 8.44129 6.12132 7.87868C5.55871 7.31607 4.79565 7 4 7M4 13V25M4 7V1M13 22C12.2044 22 11.4413 21.6839 10.8787 21.1213C10.3161 20.5587 10 19.7956 10 19C10 18.2044 10.3161 17.4413 10.8787 16.8787C11.4413 16.3161 12.2044 16 13 16M13 22C13.7956 22 14.5587 21.6839 15.1213 21.1213C15.6839 20.5587 16 19.7956 16 19C16 18.2044 15.6839 17.4413 15.1213 16.8787C14.5587 16.3161 13.7956 16 13 16M13 22V25M13 16V1M22 8.5C21.2044 8.5 20.4413 8.18393 19.8787 7.62132C19.3161 7.05871 19 6.29565 19 5.5C19 4.70435 19.3161 3.94129 19.8787 3.37868C20.4413 2.81607 21.2044 2.5 22 2.5M22 8.5C22.7957 8.5 23.5587 8.18393 24.1213 7.62132C24.6839 7.05871 25 6.29565 25 5.5C25 4.70435 24.6839 3.94129 24.1213 3.37868C23.5587 2.81607 22.7957 2.5 22 2.5M22 8.5V25M22 2.5V1" stroke="white" stroke-width="2" stroke-linecap="round" stroke-linejoin="round"/>
</svg>
