<svg width="52" height="41" viewBox="0 0 52 41" fill="none" xmlns="http://www.w3.org/2000/svg">
<path d="M2 7.28571C2 5.88386 2.5619 4.53941 3.5621 3.54815C4.56229 2.55689 5.91885 2 7.33333 2H44.6667C46.0812 2 47.4377 2.55689 48.4379 3.54815C49.4381 4.53941 50 5.88386 50 7.28571M2 7.28571V33.7143C2 35.1161 2.5619 36.4606 3.5621 37.4518C4.56229 38.4431 5.91885 39 7.33333 39H44.6667C46.0812 39 47.4377 38.4431 48.4379 37.4518C49.4381 36.4606 50 35.1161 50 33.7143V7.28571M2 7.28571L26 23.1429L50 7.28571" stroke="#002366" stroke-width="3" stroke-linecap="round" stroke-linejoin="round"/>
</svg>
