<svg width="213" height="37" viewBox="0 0 213 37" fill="none" xmlns="http://www.w3.org/2000/svg">
<path d="M169.017 27.8882C169.017 28.2082 168.905 28.4909 168.681 28.7362C168.467 28.9709 168.179 29.0882 167.817 29.0882C167.454 29.0882 167.161 28.9709 166.937 28.7362C166.723 28.4909 166.617 28.2082 166.617 27.8882C166.617 27.5682 166.723 27.2909 166.937 27.0562C167.161 26.8109 167.454 26.6882 167.817 26.6882C168.169 26.6882 168.457 26.8109 168.681 27.0562C168.905 27.2909 169.017 27.5682 169.017 27.8882ZM175.417 20.2882C175.758 20.2882 176.099 20.3202 176.441 20.3842C176.782 20.4376 177.107 20.5176 177.417 20.6242C177.737 20.7202 178.03 20.8429 178.297 20.9922C178.574 21.1416 178.814 21.3069 179.017 21.4882L178.377 22.4482C177.939 22.1176 177.491 21.8616 177.033 21.6802C176.585 21.4989 176.099 21.4082 175.577 21.4082C175.193 21.4082 174.841 21.4722 174.521 21.6002C174.201 21.7176 173.923 21.9149 173.689 22.1922C173.454 22.4589 173.267 22.8056 173.129 23.2322C173.001 23.6589 172.937 24.1709 172.937 24.7682C172.937 25.3656 173.001 25.8776 173.129 26.3042C173.267 26.7309 173.459 27.0829 173.705 27.3602C173.95 27.6269 174.243 27.8242 174.585 27.9522C174.937 28.0696 175.321 28.1282 175.737 28.1282C176.259 28.1282 176.745 28.0376 177.193 27.8562C177.651 27.6749 178.099 27.4189 178.537 27.0882L179.177 28.0482C178.974 28.2296 178.734 28.3949 178.457 28.5442C178.19 28.6936 177.897 28.8216 177.577 28.9282C177.267 29.0242 176.942 29.0989 176.601 29.1522C176.259 29.2162 175.918 29.2482 175.577 29.2482C174.819 29.2482 174.126 29.1469 173.497 28.9442C172.878 28.7522 172.35 28.4696 171.913 28.0962C171.475 27.7122 171.134 27.2429 170.889 26.6882C170.654 26.1336 170.537 25.4936 170.537 24.7682C170.537 24.0536 170.654 23.4189 170.889 22.8642C171.134 22.2989 171.47 21.8296 171.897 21.4562C172.323 21.0722 172.835 20.7842 173.433 20.5922C174.03 20.3896 174.691 20.2882 175.417 20.2882ZM184.776 28.2082C185.117 28.2082 185.437 28.1442 185.736 28.0162C186.035 27.8882 186.296 27.6909 186.52 27.4242C186.744 27.1469 186.92 26.7896 187.048 26.3522C187.187 25.9149 187.256 25.3869 187.256 24.7682C187.256 24.1496 187.187 23.6216 187.048 23.1842C186.92 22.7469 186.744 22.3949 186.52 22.1282C186.296 21.8509 186.035 21.6482 185.736 21.5202C185.437 21.3922 185.117 21.3282 184.776 21.3282C184.435 21.3282 184.115 21.3922 183.816 21.5202C183.517 21.6482 183.256 21.8509 183.032 22.1282C182.808 22.3949 182.627 22.7469 182.488 23.1842C182.36 23.6216 182.296 24.1496 182.296 24.7682C182.296 25.3869 182.36 25.9149 182.488 26.3522C182.627 26.7896 182.808 27.1469 183.032 27.4242C183.256 27.6909 183.517 27.8882 183.816 28.0162C184.115 28.1442 184.435 28.2082 184.776 28.2082ZM184.776 20.2882C185.491 20.2882 186.147 20.3896 186.744 20.5922C187.352 20.7842 187.869 21.0722 188.296 21.4562C188.723 21.8296 189.053 22.2989 189.288 22.8642C189.533 23.4189 189.656 24.0536 189.656 24.7682C189.656 25.4936 189.533 26.1336 189.288 26.6882C189.053 27.2429 188.723 27.7122 188.296 28.0962C187.869 28.4696 187.352 28.7522 186.744 28.9442C186.147 29.1469 185.491 29.2482 184.776 29.2482C184.051 29.2482 183.389 29.1469 182.792 28.9442C182.195 28.7522 181.683 28.4696 181.256 28.0962C180.829 27.7122 180.493 27.2429 180.248 26.6882C180.013 26.1336 179.896 25.4936 179.896 24.7682C179.896 24.0536 180.013 23.4189 180.248 22.8642C180.493 22.2989 180.829 21.8296 181.256 21.4562C181.683 21.0722 182.195 20.7842 182.792 20.5922C183.389 20.3896 184.051 20.2882 184.776 20.2882ZM191.499 20.6082H199.819C201.344 20.6082 202.47 20.8856 203.195 21.4402C203.931 21.9842 204.299 22.8002 204.299 23.8882V28.9282H202.059V23.8882C202.059 23.1202 201.867 22.5709 201.483 22.2402C201.099 21.8989 200.544 21.7282 199.819 21.7282H199.019V28.9282H196.779V21.7282H193.739V28.9282H191.499V20.6082Z" fill="#3F3F3F"/>
<path d="M1.50146 10.5542C5.53792 10.1554 8.58968 9.95605 10.6567 9.95605C12.7238 9.95605 14.3595 10.1066 15.564 10.4077C16.7765 10.7088 17.7734 11.1768 18.5547 11.8115C20.0684 13.0485 20.8252 15.0789 20.8252 17.9028C20.8252 19.1724 20.5851 20.3361 20.105 21.394C19.6248 22.452 18.9697 23.3594 18.1396 24.1162C17.3096 24.873 16.3371 25.4631 15.2222 25.8862C14.1073 26.3094 12.915 26.521 11.6455 26.521L9.47266 26.4722V30H1.50146V10.5542ZM12.5 15.022C11.8001 15.022 10.7747 15.5062 9.42383 16.4746V21.0767L10.8521 20.3809C11.7961 19.917 12.4552 19.4735 12.8296 19.0503C13.5295 18.2609 13.8794 17.4756 13.8794 16.6943C13.8794 15.9131 13.6149 15.3963 13.0859 15.144C12.915 15.0627 12.7197 15.022 12.5 15.022ZM32.7881 19.1724C32.7881 18.4562 32.4544 18.0981 31.7871 18.0981C31.0221 18.1714 30.5257 18.5661 30.2979 19.2822C30.1839 19.624 30.1025 20.0228 30.0537 20.4785C30.013 20.9261 29.9479 21.4062 29.8584 21.9189L32.5317 21.3208L32.7637 19.4531L32.7881 19.1724ZM31.1401 24.7266C31.1401 24.7266 30.9163 24.7266 30.4688 24.7266C30.2572 24.7266 30.0537 24.7184 29.8584 24.7021C29.8584 25.6706 30.3752 26.1995 31.4087 26.2891C31.6935 26.3135 31.9702 26.3257 32.2388 26.3257C32.9305 26.3257 33.7972 26.167 34.8389 25.8496C35.8887 25.5322 36.8286 25.0155 37.6587 24.2993L38.4155 28.0957C36.6007 29.6663 33.8582 30.4517 30.188 30.4517C28.0802 30.4517 26.2695 29.8372 24.7559 28.6084C23.112 27.2656 22.29 25.4061 22.29 23.0298C22.29 21.2394 22.7539 19.6322 23.6816 18.208C24.5443 16.9059 25.7121 15.9172 27.1851 15.2417C28.658 14.5662 30.249 14.2285 31.958 14.2285C34.1715 14.2285 35.8439 14.7127 36.9751 15.6812C38.1144 16.6496 38.68 17.8459 38.6719 19.27C38.6719 20.6942 37.9924 21.9596 36.6333 23.0664C35.2743 24.1732 33.4432 24.7266 31.1401 24.7266ZM52.0996 20.5518C51.3509 20.5518 50.5819 20.8244 49.7925 21.3696C49.0031 21.9149 48.6043 22.4316 48.5962 22.9199V30H41.2476V14.8267H48.5962V16.4502C49.0112 15.8236 49.5239 15.3231 50.1343 14.9487C50.7528 14.5744 51.4079 14.3506 52.0996 14.2773V20.5518ZM58.02 7.79541C59.2163 7.79541 60.1034 8.04769 60.6812 8.55225C61.259 9.04867 61.5438 9.68343 61.5356 10.4565C61.5356 11.2297 61.1654 11.9417 60.4248 12.5928C59.6924 13.2438 58.7118 13.5693 57.4829 13.5693C55.7576 13.5693 54.6834 13.0485 54.2603 12.0068C54.1382 11.7139 54.0771 11.3883 54.0771 11.0303C54.0771 10.6722 54.1626 10.2979 54.3335 9.90723C54.5044 9.5166 54.7607 9.16667 55.1025 8.85742C55.8594 8.14941 56.8319 7.79541 58.02 7.79541ZM61.3281 30H54.2603V14.8267H61.3281V30ZM71.3135 30.4761C67.6595 30.4761 65.2344 30.0244 64.0381 29.1211V23.5303C64.0706 23.5384 64.1886 23.575 64.3921 23.6401C64.6037 23.7052 64.8682 23.7866 65.1855 23.8843C65.9261 24.1121 66.7033 24.3278 67.5171 24.5312C68.339 24.7266 68.9982 24.8242 69.4946 24.8242C70.3084 24.8242 70.7153 24.576 70.7153 24.0796C70.7153 23.6971 70.3654 23.2902 69.6655 22.8589C69.3481 22.6636 68.986 22.4601 68.5791 22.2485C68.1803 22.0369 67.7734 21.8009 67.3584 21.5405C66.3411 20.9139 65.5233 20.1815 64.9048 19.3433C64.2944 18.505 63.9893 17.4471 63.9893 16.1694C63.9893 13.3781 65.4622 11.5023 68.4082 10.542C69.6045 10.1514 70.9839 9.95605 72.5464 9.95605C74.117 9.95605 75.7568 10.1351 77.4658 10.4932C77.8158 10.5664 78.0477 10.6193 78.1616 10.6519V16.2549C75.9481 15.7829 74.3571 15.5469 73.3887 15.5469C73.0143 15.5469 72.7336 15.612 72.5464 15.7422C72.3592 15.8724 72.2656 16.0189 72.2656 16.1816C72.2656 16.3444 72.347 16.5153 72.5098 16.6943C72.6725 16.8652 72.9533 17.0402 73.3521 17.2192C73.7508 17.3901 74.2147 17.6017 74.7437 17.854C75.2808 18.0981 75.7812 18.3626 76.2451 18.6475C78.3285 19.9251 79.3701 21.6707 79.3701 23.8843C79.3701 25.9839 78.6621 27.6074 77.2461 28.7549C75.8138 29.8942 73.8363 30.4679 71.3135 30.4761ZM92.4561 19.1479C92.2933 19.0666 92.0817 19.0259 91.8213 19.0259C91.569 19.0259 91.2882 19.1032 90.979 19.2578C90.6698 19.4043 90.3646 19.6077 90.0635 19.8682C89.4287 20.4215 88.8957 21.0929 88.4644 21.8823C88.033 22.6717 87.8174 23.4001 87.8174 24.0674C87.8174 24.7266 88.0697 25.1701 88.5742 25.3979C88.7533 25.4793 88.973 25.52 89.2334 25.52C89.4938 25.52 89.7664 25.4427 90.0513 25.2881C90.3361 25.1253 90.6209 24.9097 90.9058 24.6411C91.4998 24.0796 92.0207 23.4001 92.4683 22.6025C92.9159 21.7969 93.1396 21.0767 93.1396 20.4419C93.1396 19.8071 92.9118 19.3758 92.4561 19.1479ZM90.0879 30.4517C87.7604 30.4517 85.7544 29.7152 84.0698 28.2422C82.2713 26.6797 81.3721 24.7144 81.3721 22.3462C81.3721 19.9699 82.2144 18.029 83.8989 16.5234C85.5835 15.0098 87.6628 14.2529 90.1367 14.2529C92.6107 14.2529 94.6899 14.9935 96.3745 16.4746C98.0591 17.9476 98.9054 19.9211 98.9136 22.395C98.9217 23.9819 98.5189 25.3857 97.7051 26.6064C96.8913 27.8271 95.8049 28.7712 94.4458 29.4385C93.0868 30.1058 91.6341 30.4435 90.0879 30.4517ZM108.533 21.8945C108.533 24.5638 109.18 25.8984 110.474 25.8984C111.125 25.8984 111.503 25.5811 111.609 24.9463C111.641 24.751 111.658 24.5353 111.658 24.2993V14.8267H118.909V30H114.905L113.159 27.6196C112.126 29.0275 110.632 29.943 108.679 30.3662C106.287 30.8789 104.358 30.472 102.893 29.1455C101.786 28.1445 101.233 26.8221 101.233 25.1782V14.8267H108.533V21.8945ZM132.69 20.5518C131.942 20.5518 131.173 20.8244 130.383 21.3696C129.594 21.9149 129.195 22.4316 129.187 22.9199V30H121.838V14.8267H129.187V16.4502C129.602 15.8236 130.115 15.3231 130.725 14.9487C131.344 14.5744 131.999 14.3506 132.69 14.2773V20.5518ZM143.604 25.3735C144.425 25.3735 145.614 24.7917 147.168 23.6279V29.5972C144.499 30.6063 142.037 30.7487 139.783 30.0244C137.528 29.3001 135.929 28.0062 134.985 26.1426C134.513 25.1986 134.277 24.0918 134.277 22.8223C134.277 20.2669 135.156 18.1958 136.914 16.6089C138.672 15.022 140.959 14.2285 143.774 14.2285C144.938 14.2285 145.988 14.4035 146.924 14.7534V19.4531C146.704 19.266 146.395 19.1724 145.996 19.1724C145.597 19.1724 145.17 19.2985 144.714 19.5508C144.259 19.8031 143.844 20.1408 143.469 20.564C142.607 21.5405 142.175 22.5456 142.175 23.5791C142.183 24.6045 142.497 25.1823 143.115 25.3125C143.278 25.3451 143.441 25.3654 143.604 25.3735ZM159.961 19.1724C159.961 18.4562 159.627 18.0981 158.96 18.0981C158.195 18.1714 157.699 18.5661 157.471 19.2822C157.357 19.624 157.275 20.0228 157.227 20.4785C157.186 20.9261 157.121 21.4062 157.031 21.9189L159.705 21.3208L159.937 19.4531L159.961 19.1724ZM158.313 24.7266C158.313 24.7266 158.089 24.7266 157.642 24.7266C157.43 24.7266 157.227 24.7184 157.031 24.7021C157.031 25.6706 157.548 26.1995 158.582 26.2891C158.866 26.3135 159.143 26.3257 159.412 26.3257C160.103 26.3257 160.97 26.167 162.012 25.8496C163.062 25.5322 164.001 25.0155 164.832 24.2993L165.588 28.0957C163.774 29.6663 161.031 30.4517 157.361 30.4517C155.253 30.4517 153.442 29.8372 151.929 28.6084C150.285 27.2656 149.463 25.4061 149.463 23.0298C149.463 21.2394 149.927 19.6322 150.854 18.208C151.717 16.9059 152.885 15.9172 154.358 15.2417C155.831 14.5662 157.422 14.2285 159.131 14.2285C161.344 14.2285 163.017 14.7127 164.148 15.6812C165.287 16.6496 165.853 17.8459 165.845 19.27C165.845 20.6942 165.165 21.9596 163.806 23.0664C162.447 24.1732 160.616 24.7266 158.313 24.7266Z" fill="#3F3F3F"/>
</svg>
