<svg width="37" height="37" viewBox="0 0 37 37" fill="none" xmlns="http://www.w3.org/2000/svg">
<path id="Vector" d="M35 35L24 24M2 14.8333C2 16.5186 2.33194 18.1874 2.97688 19.7444C3.62181 21.3015 4.56711 22.7162 5.7588 23.9079C6.95048 25.0996 8.36522 26.0449 9.92223 26.6898C11.4792 27.3347 13.148 27.6667 14.8333 27.6667C16.5186 27.6667 18.1874 27.3347 19.7444 26.6898C21.3015 26.0449 22.7162 25.0996 23.9079 23.9079C25.0996 22.7162 26.0449 21.3015 26.6898 19.7444C27.3347 18.1874 27.6667 16.5186 27.6667 14.8333C27.6667 13.148 27.3347 11.4792 26.6898 9.92223C26.0449 8.36522 25.0996 6.95048 23.9079 5.7588C22.7162 4.56711 21.3015 3.62181 19.7444 2.97688C18.1874 2.33194 16.5186 2 14.8333 2C13.148 2 11.4792 2.33194 9.92223 2.97688C8.36522 3.62181 6.95048 4.56711 5.7588 5.7588C4.56711 6.95048 3.62181 8.36522 2.97688 9.92223C2.33194 11.4792 2 13.148 2 14.8333Z" stroke="white" stroke-width="3" stroke-linecap="round" stroke-linejoin="round"/>
</svg>
