<svg width="124" height="277" viewBox="0 0 124 277" fill="none" xmlns="http://www.w3.org/2000/svg">
<path d="M71.7902 251.175L71.312 275.19L101.367 275.934C101.263 273.076 85.858 266.962 85.858 266.962L86.7995 251.587L71.7902 251.175Z" fill="#455A64"/>
<g opacity="0.6">
<path d="M76.597 265.437C76.0112 265.581 75.5934 266.221 75.7135 266.809C75.8337 267.396 76.4847 267.825 77.0728 267.692C77.661 267.558 78.1863 266.805 78.001 266.235C77.8149 265.664 77.0226 265.203 76.4839 265.472" fill="white"/>
</g>
<g opacity="0.6">
<path d="M71.312 275.191L71.4557 272.772L100.219 274.39C100.219 274.39 101.543 275.002 101.367 275.936L71.312 275.191Z" fill="white"/>
</g>
<path d="M86.3487 266.822C86.3401 266.968 85.6051 267.016 84.8709 267.467C84.1249 267.899 83.737 268.522 83.6035 268.461C83.4692 268.43 83.7095 267.562 84.6078 267.032C85.5006 266.493 86.384 266.689 86.3487 266.822Z" fill="#263238"/>
<path d="M89.4685 268.196C89.4983 268.338 88.8568 268.57 88.3432 269.175C87.8116 269.765 87.6687 270.429 87.5227 270.419C87.3837 270.438 87.3036 269.582 87.9577 268.843C88.604 268.097 89.4685 268.057 89.4685 268.196Z" fill="#263238"/>
<path d="M91.1649 271.991C91.0306 272.019 90.8445 271.285 91.2418 270.495C91.6329 269.703 92.3333 269.405 92.3922 269.528C92.4723 269.65 92.0153 270.068 91.6996 270.721C91.369 271.366 91.3117 271.98 91.1649 271.991Z" fill="#263238"/>
<path d="M86.1719 263.294C86.1067 263.425 85.4385 263.207 84.6077 263.243C83.7761 263.262 83.1236 263.523 83.0505 263.396C82.9681 263.288 83.612 262.764 84.5912 262.736C85.5704 262.7 86.2473 263.182 86.1719 263.294Z" fill="#263238"/>
<path d="M85.5454 259.732C85.5454 259.792 84.9636 259.868 84.0401 259.687C83.5807 259.596 83.0413 259.432 82.4775 259.167C82.1956 259.034 81.9081 258.876 81.6239 258.69C81.488 258.598 81.3255 258.505 81.1786 258.326C81.02 258.17 80.9368 257.781 81.1308 257.548C81.2902 257.322 81.565 257.231 81.7817 257.231C82.0032 257.229 82.1822 257.278 82.344 257.322C82.6769 257.411 82.9879 257.529 83.2721 257.664C83.8399 257.938 84.2985 258.278 84.6369 258.604C85.3185 259.263 85.5423 259.814 85.492 259.84C85.4245 259.887 85.0963 259.422 84.3997 258.874C84.0527 258.602 83.6074 258.318 83.0758 258.089C82.8096 257.975 82.5222 257.877 82.2183 257.803C81.9019 257.712 81.6317 257.703 81.5461 257.842C81.5147 257.895 81.5108 257.915 81.5752 258.009C81.642 258.097 81.7684 258.184 81.9026 258.274C82.1641 258.454 82.428 258.61 82.6863 258.746C83.2038 259.018 83.7009 259.206 84.1273 259.337C84.984 259.599 85.5501 259.654 85.5454 259.732Z" fill="#263238"/>
<path d="M85.3493 259.937C85.2966 259.958 85.0187 259.428 84.988 258.481C84.9747 258.012 85.0383 257.446 85.2346 256.849C85.3343 256.551 85.4678 256.247 85.6406 255.95C85.8243 255.659 86.0489 255.27 86.6198 255.218C86.9174 255.214 87.1585 255.451 87.2378 255.651C87.332 255.856 87.3477 256.029 87.3783 256.204C87.4247 256.554 87.4097 256.896 87.354 257.211C87.2441 257.845 86.9684 258.367 86.6724 258.741C86.0662 259.501 85.449 259.659 85.438 259.61C85.3909 259.535 85.9099 259.266 86.3779 258.534C86.6088 258.173 86.8177 257.694 86.8891 257.139C86.9252 256.864 86.9284 256.569 86.8828 256.274C86.8436 255.955 86.7305 255.696 86.6104 255.725C86.4612 255.72 86.2012 255.953 86.0717 256.203C85.9107 256.467 85.7811 256.738 85.6783 257.005C85.4765 257.54 85.3814 258.055 85.3493 258.491C85.2864 259.366 85.4293 259.916 85.3493 259.937Z" fill="#263238"/>
<path d="M49.0118 253.17L46.1402 277L16.3062 273.106C16.8071 270.295 32.8977 266.619 32.8977 266.619L34.1078 251.266L49.0118 253.17Z" fill="#455A64"/>
<g opacity="0.6">
<path d="M42.2702 266.537C42.8293 266.769 43.1544 267.467 42.9533 268.03C42.7523 268.592 42.0487 268.916 41.4857 268.693C40.9227 268.47 40.5073 267.644 40.7703 267.109C41.0334 266.573 41.8815 266.238 42.377 266.589" fill="white"/>
</g>
<g opacity="0.6">
<path d="M46.1402 277L46.3349 274.586L17.6576 271.755C17.6576 271.755 16.263 272.156 16.3062 273.106L46.1402 277Z" fill="white"/>
</g>
<path d="M32.4309 266.405C32.4191 266.55 33.14 266.711 33.8027 267.27C34.4804 267.812 34.7772 268.489 34.9178 268.448C35.0552 268.437 34.9382 267.543 34.1231 266.88C33.3151 266.21 32.4144 266.268 32.4309 266.405Z" fill="#263238"/>
<path d="M29.1533 267.283C29.1038 267.419 29.7061 267.748 30.1301 268.425C30.5746 269.09 30.6225 269.769 30.7685 269.782C30.9028 269.823 31.1015 268.988 30.5581 268.155C30.0225 267.318 29.1721 267.145 29.1533 267.283Z" fill="#263238"/>
<path d="M26.9467 270.776C27.0754 270.824 27.3613 270.127 27.0786 269.285C26.8022 268.441 26.1512 268.037 26.0758 268.15C25.98 268.258 26.3726 268.742 26.5949 269.437C26.832 270.126 26.8037 270.743 26.9467 270.776Z" fill="#263238"/>
<path d="M33.097 262.942C33.1434 263.082 33.8344 262.969 34.6511 263.133C35.4716 263.28 36.0802 263.638 36.1705 263.523C36.2671 263.43 35.7033 262.811 34.7382 262.633C33.7747 262.447 33.0382 262.82 33.097 262.942Z" fill="#263238"/>
<path d="M34.213 259.515C34.2044 259.575 34.7697 259.74 35.7081 259.703C36.1745 259.684 36.7313 259.605 37.3265 259.429C37.6241 259.341 37.9304 259.229 38.2366 259.089C38.3842 259.019 38.5578 258.952 38.7282 258.798C38.9072 258.669 39.0431 258.296 38.8837 258.037C38.7572 257.789 38.4981 257.655 38.2837 257.622C38.0646 257.587 37.8817 257.608 37.7144 257.627C37.3728 257.663 37.0485 257.732 36.7493 257.822C36.1494 258.006 35.6492 258.272 35.2676 258.542C34.502 259.088 34.2036 259.599 34.2499 259.633C34.3104 259.69 34.6998 259.28 35.4647 258.846C35.8463 258.631 36.3261 258.419 36.8836 258.274C37.1624 258.204 37.4608 258.15 37.7717 258.123C38.0976 258.082 38.3662 258.115 38.4314 258.265C38.4549 258.322 38.4557 258.343 38.3795 258.427C38.3018 258.503 38.1636 258.569 38.0183 258.639C37.7348 258.775 37.4521 258.889 37.1773 258.984C36.6268 259.173 36.1094 259.283 35.6696 259.346C34.787 259.47 34.2201 259.436 34.213 259.515Z" fill="#263238"/>
<path d="M34.3785 259.748C34.428 259.777 34.7766 259.295 34.9384 258.364C35.0169 257.902 35.0334 257.332 34.9219 256.711C34.8646 256.401 34.775 256.08 34.6455 255.759C34.5041 255.443 34.3361 255.023 33.7786 254.885C33.4849 254.835 33.2132 255.033 33.1072 255.218C32.9855 255.406 32.9462 255.575 32.8912 255.742C32.7962 256.081 32.764 256.422 32.775 256.743C32.7962 257.387 32.9957 257.946 33.236 258.361C33.7307 259.206 34.318 259.459 34.3361 259.411C34.3934 259.345 33.9176 258.999 33.5563 258.202C33.3789 257.808 33.2383 257.303 33.2446 256.744C33.2469 256.465 33.2846 256.174 33.371 255.889C33.4543 255.579 33.6027 255.341 33.7173 255.388C33.8657 255.405 34.0903 255.676 34.1837 255.943C34.3062 256.229 34.3966 256.517 34.4609 256.797C34.5866 257.358 34.6086 257.882 34.5795 258.318C34.5206 259.193 34.3023 259.715 34.3785 259.748Z" fill="#263238"/>
<path d="M95.1036 123.717L48.3074 125.291C48.3074 125.291 37.2794 202.755 37.5833 208.137L30.7822 264.326L50.5729 265.056C50.5729 265.056 53.6864 246.835 55.8576 234.364C57.3025 226.066 59.9378 213.892 60.6531 206.964C61.3677 200.035 72.9415 151.649 72.9415 151.649C72.9415 151.649 72.0864 207.817 72.106 210.124C72.1256 212.431 69.8186 265.012 69.8186 265.012H89.4695C90.4848 255.521 92.8963 217.545 93.4154 209.87C94.3529 196.016 97.3118 156.869 97.7429 146.866C98.174 136.862 95.1036 123.717 95.1036 123.717Z" fill="#263238"/>
<path d="M92.0198 124.096C91.9256 124.096 91.8486 123.305 91.8486 122.331C91.8486 121.355 91.9256 120.565 92.0198 120.565C92.114 120.565 92.191 121.355 92.191 122.331C92.191 123.305 92.114 124.096 92.0198 124.096Z" fill="#455A64"/>
<path d="M93.9634 125.025C93.8747 125.039 93.6689 124.026 93.7718 122.762C93.8692 121.499 94.2319 120.534 94.3168 120.565C94.4118 120.594 94.206 121.571 94.1126 122.792C94.0121 124.012 94.0623 125.012 93.9634 125.025Z" fill="#455A64"/>
<path d="M76.484 121.336C76.4981 121.4 75.9626 121.331 75.4938 121.917C75.2755 122.194 75.0886 122.629 75.1703 123.083C75.2386 123.537 75.6524 123.923 76.1612 124.023C76.6701 124.126 77.1899 123.927 77.4121 123.53C77.6469 123.141 77.6242 122.664 77.5181 122.32C77.2857 121.594 76.7635 121.452 76.7996 121.398C76.8028 121.381 76.9308 121.379 77.1302 121.488C77.3289 121.594 77.5825 121.837 77.7451 122.23C77.8966 122.614 77.9681 123.179 77.6815 123.703C77.4019 124.242 76.7156 124.508 76.0984 124.375C75.4781 124.261 74.9331 123.748 74.8609 123.139C74.7776 122.54 75.0407 122.044 75.3155 121.745C75.6037 121.442 75.9249 121.313 76.1463 121.291C76.3685 121.267 76.4863 121.319 76.484 121.336Z" fill="#455A64"/>
<path d="M54.9104 206.806C54.8743 206.897 52.6308 206.015 49.8989 204.835C47.1663 203.655 44.9809 202.623 45.017 202.531C45.0524 202.44 47.2966 203.322 50.0293 204.502C52.7604 205.682 54.9465 206.714 54.9104 206.806Z" fill="#455A64"/>
<path d="M52.3671 7.29805C52.5218 4.43298 54.1967 2.67048 56.5438 1.2078C58.8909 -0.254885 61.9345 -0.40024 64.3987 0.832841C66.0461 1.65792 67.4886 3.06692 69.2986 3.31222C72.2794 3.71691 75.1 0.81219 78.0251 1.53734C79.7566 1.96681 81.0758 3.78876 81.0091 5.65779C80.9423 7.52765 79.4974 9.24059 77.7408 9.53214C79.6922 9.82946 80.797 12.4261 80.0754 14.3563C79.3537 16.2864 77.3058 17.4063 75.3341 17.4518C73.3623 17.4972 71.4675 16.6506 69.7619 15.6092C68.0564 14.5685 66.4639 13.3156 64.6853 12.4203C62.9067 11.525 60.8603 11.0022 58.9545 11.5358C56.3742 12.2576 54.5461 14.8204 53.8732 17.5377C53.2002 20.2549 53.49 23.1258 53.8912 25.9025C54.2925 28.6792 54.8005 31.479 54.5501 34.2747C54.5202 34.6026 54.4511 34.9784 54.1763 35.1378C53.7797 35.3674 53.3251 34.9742 53.0337 34.61C49.7373 30.4995 47.219 25.7009 45.6681 20.577C44.7674 17.6004 44.2711 14.704 45.3516 11.7943C46.4329 8.88545 50.0749 6.11618 52.3671 7.29805Z" fill="#263238"/>
<path d="M49.8536 21.1456L54.2157 49.4511C55.03 54.737 58.2959 59.8444 66.1829 58.1091C72.918 56.0609 72.417 50.965 71.5399 44.6824C71.5399 44.6824 78.9487 42.6556 78.2852 34.7318C77.964 30.9021 76.6935 23.0716 75.4654 16.001C74.1469 8.40765 67.4966 3.15734 60.1946 3.93039L59.469 4.00721C51.6856 5.31544 48.3947 12.9989 49.8536 21.1456Z" fill="#FFBE9D"/>
<path d="M71.5406 44.6826C71.5406 44.6826 66.8251 45.4771 61.4517 42.6724C61.4517 42.6724 64.4066 48.5594 71.8468 47.053L71.5406 44.6826Z" fill="#EB996E"/>
<path d="M73.9881 22.9261C74.0659 23.5207 73.6505 24.0799 73.0607 24.1757C72.4726 24.2715 71.9331 23.8684 71.8554 23.2738C71.7784 22.6791 72.193 22.1191 72.7812 22.0233C73.3709 21.9275 73.9112 22.3314 73.9881 22.9261Z" fill="#263238"/>
<path d="M74.2194 20.0549C74.1 20.216 73.226 19.6692 72.0694 19.7939C70.9127 19.9021 70.1243 20.6174 69.9845 20.4819C69.9162 20.4225 70.0269 20.1417 70.3693 19.8204C70.7062 19.4999 71.3006 19.1605 72.0215 19.0878C72.7423 19.0159 73.3745 19.2307 73.7506 19.4793C74.133 19.7287 74.2791 19.9822 74.2194 20.0549Z" fill="#263238"/>
<path d="M63.4578 24.678C63.5348 25.2727 63.1194 25.8318 62.5305 25.9276C61.9423 26.0234 61.4028 25.6204 61.3251 25.0257C61.2481 24.4311 61.6635 23.8711 62.2509 23.7753C62.8406 23.6795 63.3809 24.0833 63.4578 24.678Z" fill="#263238"/>
<path d="M63.0927 21.4812C62.9733 21.6431 62.0978 21.0955 60.9427 21.221C59.7868 21.3292 58.9976 22.0445 58.8578 21.909C58.7903 21.8495 58.8995 21.5696 59.2434 21.2475C59.5803 20.927 60.1739 20.5876 60.8948 20.5141C61.6156 20.4422 62.2478 20.6569 62.6239 20.9055C63.0047 21.1541 63.1516 21.4085 63.0927 21.4812Z" fill="#263238"/>
<path d="M67.9337 30.0603C67.922 29.9918 68.6279 29.7853 69.7775 29.5053C70.0696 29.4417 70.3437 29.3509 70.3727 29.1337C70.4206 28.9016 70.2652 28.5803 70.0877 28.2342C69.7383 27.5124 69.3723 26.755 68.9883 25.9613C67.454 22.723 66.3114 20.047 66.4355 19.9826C66.5603 19.919 67.9047 22.4925 69.4391 25.7309C69.8105 26.5304 70.1654 27.2919 70.5031 28.0212C70.6484 28.3623 70.8792 28.7422 70.7724 29.2237C70.7151 29.464 70.5149 29.6556 70.3303 29.7291C70.1466 29.8101 69.9809 29.8307 69.8356 29.8555C68.6719 30.0463 67.9447 30.1289 67.9337 30.0603Z" fill="#263238"/>
<path d="M62.718 16.6864C62.6356 17.0292 61.4664 16.9945 60.1259 17.31C58.7792 17.5974 57.7254 18.1309 57.5173 17.8534C57.4231 17.7196 57.5841 17.3884 57.9963 17.0217C58.4039 16.6559 59.0745 16.2784 59.8801 16.0967C60.6858 15.9175 61.4444 15.9745 61.9587 16.1331C62.477 16.2916 62.7518 16.5245 62.718 16.6864Z" fill="#263238"/>
<path d="M73.4582 16.5805C73.2815 16.8787 72.457 16.6763 71.4982 16.7639C70.5362 16.8167 69.7471 17.1364 69.5327 16.8671C69.4377 16.7358 69.5382 16.4451 69.868 16.1461C70.1923 15.8488 70.7561 15.5737 71.4165 15.525C72.0769 15.4771 72.6713 15.6671 73.0318 15.9148C73.3969 16.1634 73.5351 16.436 73.4582 16.5805Z" fill="#263238"/>
<path d="M51.0293 26.9401C50.895 26.8955 45.7053 25.8788 46.3869 31.2719C47.0685 36.6659 52.076 34.8333 52.0658 34.6772C52.054 34.5219 51.0293 26.9401 51.0293 26.9401Z" fill="#FFBE9D"/>
<path d="M50.24 32.8528C50.2148 32.8388 50.1591 32.9313 50.017 33.0255C49.8787 33.1171 49.6314 33.2014 49.3511 33.1328C48.7833 32.999 48.2124 32.1583 48.0648 31.1903C47.9894 30.7014 48.0287 30.2199 48.1449 29.8102C48.2517 29.394 48.459 29.0842 48.726 28.995C48.9891 28.891 49.2042 29.0355 49.2859 29.1792C49.3738 29.3204 49.355 29.4328 49.3833 29.4385C49.3997 29.4501 49.4822 29.3328 49.4123 29.1156C49.3778 29.0116 49.3016 28.8926 49.1681 28.8059C49.0315 28.7184 48.8438 28.6894 48.6569 28.7373C48.2651 28.8216 47.9572 29.2535 47.8292 29.7037C47.6801 30.1587 47.6251 30.7014 47.7099 31.2506C47.8803 32.3325 48.5375 33.2757 49.3071 33.3979C49.6801 33.4467 49.9667 33.2898 50.1065 33.1411C50.2478 32.985 50.2596 32.8603 50.24 32.8528Z" fill="#EB996E"/>
<path d="M74.8516 8.62041C74.0334 7.13626 72.7205 6.01881 71.3266 5.12683C68.3223 3.20411 64.7596 2.18576 61.2558 2.49878C57.7512 2.8118 54.3323 4.50657 52.0456 7.31631C50.216 9.56526 49.1559 12.4452 48.8174 15.3838C48.479 18.3224 48.8355 21.3188 49.6066 24.1657C49.9451 25.4153 50.4013 26.7012 51.3397 27.5461C51.9263 28.0739 52.8741 28.3621 53.4355 27.8054C53.7661 27.4776 53.8493 26.9663 53.9153 26.4939C54.5058 22.214 55.0539 17.6212 53.2148 13.7526C54.0692 12.2998 55.0947 10.9239 56.4304 9.95261C57.7662 8.98134 59.4482 8.44945 61.0407 8.78559C63.405 9.28527 65.0423 11.483 67.029 12.9217C69.8684 14.9783 73.6761 15.4664 76.9019 14.1879L74.8516 8.62041Z" fill="#263238"/>
<path d="M68.9525 33.3462C68.8701 33.8542 68.7845 34.3704 68.5685 34.8329C68.3526 35.2954 67.9835 35.705 67.5092 35.8347C67.0035 35.9726 66.4484 35.7628 66.0754 35.3796C65.7016 34.9964 65.4943 34.4612 65.4103 33.9194C65.3341 33.4288 65.4307 32.8036 65.8783 32.645C66.0644 32.579 66.2678 32.6153 66.4609 32.6525C67.3326 32.8185 68.205 32.9845 69.0766 33.1505" fill="#EB996E"/>
<path d="M68.4043 35.645C68.376 35.5682 67.8915 35.9109 67.085 35.7606C66.6948 35.6871 66.2401 35.4723 65.9284 35.0454C65.6182 34.6241 65.4486 33.9989 65.5664 33.3935C65.5915 33.2432 65.6457 33.0987 65.7014 32.9682C65.776 32.8418 65.7595 32.8501 65.8663 32.8435C65.97 32.8493 66.1443 32.893 66.2841 32.9178C66.4301 32.9459 66.5731 32.9732 66.7136 33.0004C67.2735 33.1061 67.7792 33.1953 68.2048 33.2639C69.056 33.4001 69.5884 33.453 69.6002 33.3911C69.612 33.3283 69.1016 33.1615 68.2653 32.9434C67.8475 32.8344 67.3489 32.7122 66.7929 32.5825C66.6532 32.5503 66.511 32.5181 66.3658 32.485C66.2126 32.4553 66.0925 32.4124 65.8875 32.3909C65.7878 32.3835 65.6512 32.3975 65.5318 32.4809C65.4156 32.5635 65.3536 32.6717 65.3096 32.7609C65.2319 32.936 65.1675 33.1119 65.1345 33.301C64.9884 34.0567 65.2099 34.8091 65.6119 35.3138C66.0226 35.83 66.5896 36.0455 67.0426 36.0852C67.5044 36.1306 67.8711 36.0141 68.0957 35.8977C68.3234 35.7788 68.4192 35.6681 68.4043 35.645Z" fill="#263238"/>
<path d="M87.5269 21.7011L88.7393 21.3559L107.686 40.7284L123.03 42.6709C123.03 42.6709 122.878 37.7906 117.103 31.5616C111.951 26.0066 99.8993 19.3803 95.8199 15.9735C94.8022 15.1236 94.0531 14.8643 94.0531 14.8643L87.5269 21.7011Z" fill="#FFBE9D"/>
<path d="M87.5178 12.485L85.579 11.9135L81.0089 9.63232L75.8097 11.6674C75.8097 11.6674 75.9252 13.5389 77.2954 13.0285L71.8466 14.9181C71.8466 14.9181 72.2926 16.2759 72.5376 16.366C72.7826 16.456 69.3408 16.7616 69.3408 16.7616C69.3408 16.7616 69.3102 18.6033 72.5933 18.5678C75.8773 18.5323 77.1164 17.9467 77.1164 17.9467L79.7328 18.681L79.6284 20.3171L76.0696 20.2626L76.2314 22.3629C76.7536 22.6238 80.8212 23.0988 80.8212 23.0988C80.8212 23.0988 86.3195 23.1838 87.8076 22.4298C89.2956 21.6757 91.1983 20.583 91.1983 20.583L94.0527 14.8677L87.5178 12.485Z" fill="#FFBE9D"/>
<path d="M82.6114 13.4577C82.5776 13.5032 82.3004 13.3454 81.8261 13.1183C81.3573 12.8763 80.6844 12.5963 79.9776 12.0859L80.214 12.09C80.1473 12.1363 80.0758 12.1858 80.0043 12.2354C79.2395 12.745 78.4386 12.9845 77.8598 13.0613C77.2772 13.1398 76.916 13.0803 76.9152 13.0266C76.8995 12.8978 78.3483 12.8358 79.7868 11.872C79.8536 11.8257 79.9203 11.7803 79.9831 11.7374L80.1033 11.6548L80.2195 11.7415C80.854 12.2114 81.5238 12.5525 81.9612 12.8631C82.4103 13.1621 82.6451 13.4148 82.6114 13.4577Z" fill="#EB996E"/>
<path d="M80.9332 16.3663C80.9427 16.4027 80.5869 16.4985 80.0538 16.2656C79.5159 16.0583 78.9395 15.4669 78.1959 15.1068L78.3843 15.0903C78.0718 15.3133 77.7184 15.5297 77.336 15.7188C76.2555 16.2623 75.1695 16.4531 74.396 16.4787C73.6179 16.5059 73.1459 16.3862 73.1514 16.335C73.1436 16.2045 75.0863 16.3738 77.1617 15.3298C77.5253 15.1498 77.8637 14.9491 78.1668 14.7459L78.2642 14.6807L78.3553 14.7294C79.1994 15.1787 79.6973 15.7866 80.1613 16.031C80.6089 16.3044 80.9348 16.3069 80.9332 16.3663Z" fill="#EB996E"/>
<path d="M85.8066 18.1607C85.7854 18.2293 85.4021 18.1021 84.7826 18.1104C84.1685 18.1137 83.3047 18.2921 82.5203 18.8273C82.035 19.1593 81.6565 19.583 81.4021 19.9926L81.3558 20.0661L81.2859 20.0802C80.1857 20.2974 79.4342 20.3981 79.4178 20.3189C79.4013 20.2387 80.1229 19.9992 81.2081 19.711L81.0927 19.7985C81.3471 19.3245 81.7594 18.8347 82.2973 18.4672C83.1673 17.8725 84.1371 17.7288 84.7959 17.8073C85.4642 17.8808 85.8254 18.1186 85.8066 18.1607Z" fill="#EB996E"/>
<path d="M91.1986 20.5808C91.2025 20.5874 91.1483 20.6262 91.0391 20.6939C90.9064 20.7732 90.7462 20.869 90.5507 20.9855C90.0835 21.2514 89.4498 21.6132 88.6496 22.0682C88.235 22.2871 87.7906 22.6075 87.2111 22.748C86.648 22.8983 86.0277 22.9866 85.361 23.0593C84.0269 23.1989 82.505 23.2584 80.8183 23.2559H80.8128L80.8065 23.2551C80.1571 23.1849 79.4732 23.1114 78.761 23.0354C78.0385 22.928 77.3326 22.8933 76.5183 22.634L76.4398 22.6092L76.4225 22.4994C76.311 21.7792 76.1893 20.9946 76.0644 20.1909L76.0291 19.963L76.2497 19.9721C77.32 20.0175 78.4618 20.0662 79.6365 20.1166L79.4394 20.3024C79.4708 19.7937 79.5054 19.2329 79.5407 18.6663L79.6836 18.8761C78.8591 18.6465 77.9702 18.3987 77.0664 18.1476L77.1983 18.1361C75.927 18.6027 74.618 18.6969 73.2666 18.7638C72.5983 18.7861 71.8963 18.8001 71.1967 18.6556C70.5135 18.5185 69.7534 18.1988 69.3395 17.4687C69.228 17.2515 69.1472 17.0384 69.1369 16.7568L69.1299 16.5636L69.3246 16.5462C70.1381 16.4719 70.9454 16.3959 71.7377 16.3017C71.9348 16.2778 72.1335 16.2522 72.3211 16.22L72.446 16.1936C72.4601 16.1902 72.4499 16.1919 72.4428 16.1969C72.4374 16.2043 72.4578 16.1803 72.3965 16.2348C72.3486 16.2819 72.3353 16.3761 72.3518 16.4198C72.3361 16.4925 72.4939 16.5908 72.4633 16.5627C72.4154 16.5396 72.3518 16.4967 72.3353 16.4727C72.2277 16.3579 72.1829 16.2637 72.128 16.1638C71.9293 15.7707 71.7919 15.3842 71.6552 14.9861L71.5861 14.7829L71.7832 14.7152C73.6655 14.066 75.4881 13.4367 77.2344 12.8346L77.3593 13.2178C77.1457 13.2814 76.9188 13.3475 76.6754 13.2963C76.4351 13.2566 76.2113 13.1121 76.0621 12.9271C75.7645 12.5463 75.6702 12.1152 75.6231 11.6783L75.6074 11.5346L75.744 11.4817C77.5894 10.7673 79.3287 10.0942 80.9502 9.46653L81.017 9.44092L81.0798 9.47313C82.7359 10.3114 84.2617 11.0845 85.6382 11.7807L85.6162 11.7725C86.2852 11.9748 86.9213 12.1681 87.5244 12.3506C88.1117 12.5703 88.6661 12.7768 89.186 12.9709C90.2099 13.3582 91.0949 13.6927 91.8307 13.971C92.5248 14.2411 93.0761 14.455 93.4868 14.6152C93.8629 14.7664 94.0569 14.8514 94.0529 14.8655C94.0482 14.8787 93.8456 14.8192 93.4616 14.6937C93.0447 14.5525 92.4864 14.3625 91.7828 14.123C91.0415 13.8637 90.151 13.5515 89.1192 13.1905C88.597 13.0064 88.0403 12.8098 87.4498 12.6017C86.8467 12.4291 86.2099 12.2465 85.5416 12.0541L85.5306 12.0508L85.5188 12.045C84.136 11.3645 82.6024 10.6096 80.9369 9.78945L81.0665 9.79523C79.4489 10.4353 77.715 11.1216 75.8736 11.8493L75.9945 11.6527C76.0307 12.0078 76.1343 12.4092 76.3471 12.6653C76.5552 12.9296 76.8874 12.9651 77.2297 12.8354L77.3546 13.2186C75.6098 13.8273 73.7896 14.4624 71.9089 15.1174L72.0361 14.8465C72.1649 15.2223 72.3078 15.6138 72.4821 15.9565C72.5237 16.0383 72.5787 16.1275 72.6125 16.1605C72.6172 16.1671 72.6219 16.1712 72.6164 16.1655C72.6078 16.1696 72.5771 16.2233 72.5701 16.2588L72.5685 16.2662L72.5677 16.2704C72.6431 16.0564 72.5968 16.2142 72.6172 16.1679C72.636 16.1762 72.6564 16.1894 72.6745 16.2059C72.713 16.2398 72.7381 16.2893 72.7475 16.3273C72.7601 16.3752 72.7428 16.4752 72.691 16.5272C72.6266 16.5875 72.6407 16.5652 72.6297 16.5751C72.5999 16.59 72.5669 16.6015 72.5567 16.604C72.4892 16.623 72.4421 16.6305 72.3887 16.6412C72.1829 16.6767 71.9843 16.7015 71.784 16.7271C70.9823 16.8229 70.1758 16.8997 69.3584 16.974L69.5453 16.7634C69.55 16.9038 69.6105 17.102 69.6945 17.2557C70.0039 17.8099 70.6423 18.1105 71.2768 18.2344C71.9214 18.3673 72.5842 18.3591 73.2517 18.3368C74.5654 18.2814 75.905 18.165 77.035 17.7553L77.1104 17.7281L77.1677 17.7438C78.0707 17.999 78.9589 18.2501 79.7826 18.483L79.9365 18.5267L79.9255 18.6936C79.8878 19.2601 79.8509 19.8201 79.8171 20.3289L79.8046 20.5238L79.62 20.5147C78.4453 20.4577 77.3035 20.4016 76.234 20.3495L76.4194 20.1315C76.5387 20.9359 76.6541 21.7205 76.7609 22.4424L76.6651 22.3077C77.3169 22.5175 78.11 22.5943 78.8002 22.6967C79.5085 22.781 80.1886 22.8619 80.8348 22.9379L80.823 22.9371C82.4972 22.9586 84.0167 22.9214 85.339 22.8066C85.9994 22.7463 86.6143 22.6703 87.1608 22.5374C87.7065 22.4209 88.1494 22.1186 88.5742 21.9088C89.3885 21.4851 90.0332 21.1498 90.5091 20.9029C90.7125 20.8021 90.8797 20.7195 91.0172 20.6518C91.1342 20.5989 91.1954 20.5742 91.1986 20.5808Z" fill="#EB996E"/>
<path d="M84.6316 14.3627C84.7141 14.432 83.9265 15.5421 82.6143 16.5191C81.3069 17.5044 80.0521 17.9256 80.0175 17.8207C79.9704 17.7043 81.1153 17.122 82.3772 16.1689C83.6446 15.2257 84.5421 14.2784 84.6316 14.3627Z" fill="#EB996E"/>
<path d="M122.897 42.0726L107.686 40.728L89.7575 47.9052L85.8062 50.43L91.4168 70.5805C91.4168 70.5805 119.52 53.1654 120.715 51.6746C124.395 47.0892 122.897 42.0726 122.897 42.0726Z" fill="#002366"/>
<path d="M41.7037 56.8962L36.4731 60.3105L48.5487 110.314L46.361 139.104C49.4785 141.962 57.3553 144.416 72.2978 143.525C87.2404 142.634 97.1808 135.834 97.1808 135.834L95.7509 106.177L92.3555 72.7123L88.5117 49.8372L77.014 50.7102L72.5373 47.9194L70.5279 48.9757L67.9515 56.4874L61.2399 51.3907L53.3898 47.4106L50.5221 53.04L41.7037 56.8962Z" fill="#002366"/>
<path d="M88.5125 55.6549C88.5392 55.6459 88.6852 56.0423 88.9263 56.7674C89.1705 57.4918 89.4917 58.5514 89.8615 59.8687C90.602 62.5034 91.4862 66.191 92.1867 70.3214C92.8832 74.4543 93.2609 78.2369 93.4289 80.9789C93.5137 82.3499 93.5593 83.4608 93.5671 84.2289C93.5781 84.997 93.571 85.4223 93.5436 85.4231C93.5153 85.424 93.469 85.0019 93.4085 84.2371C93.3386 83.3931 93.2491 82.3062 93.1407 81.0029C92.8997 78.2741 92.478 74.5129 91.7846 70.3966C91.0873 66.2819 90.251 62.5983 89.5835 59.9497C89.2577 58.6868 88.986 57.6338 88.7755 56.8162C88.58 56.0778 88.485 55.664 88.5125 55.6549Z" fill="#263238"/>
<path d="M65.8045 56.0534C65.7974 56.0774 65.3891 55.9882 64.724 55.6347C64.0675 55.2804 63.1456 54.6304 62.347 53.4981L62.6297 53.4163C62.508 55.3977 62.1154 57.9646 61.2304 60.6389L61.1425 60.9048L60.9218 60.7446C60.7467 60.6174 60.559 60.482 60.3698 60.3449C57.6662 58.3833 55.2311 56.5886 53.4808 55.2713C52.6649 54.6469 51.9755 54.1192 51.4195 53.693C50.9381 53.3122 50.6798 53.0901 50.6955 53.0661C50.7112 53.0422 51.001 53.2173 51.5098 53.5551C52.0854 53.9507 52.8 54.4404 53.6449 55.0202C55.4376 56.2731 57.8986 58.029 60.6022 59.9905C60.7915 60.1276 60.9791 60.2639 61.1542 60.3911L60.8456 60.4968C61.7228 57.8638 62.1437 55.344 62.3196 53.3891L62.3596 52.9414L62.6023 53.3065C63.3349 54.4107 64.1955 55.0797 64.8104 55.4736C65.4323 55.8676 65.8179 56.0163 65.8045 56.0534Z" fill="#263238"/>
<path d="M76.5568 51.6321C76.6172 51.694 75.5603 52.9485 74.0008 54.6821L73.8587 54.8399L73.7205 54.6714C73.2328 54.0743 72.6604 53.4515 72.0125 52.8511C71.689 52.5513 71.3624 52.2713 71.0388 52.0128C70.8771 51.8889 70.7184 51.7658 70.5614 51.6453C70.4907 51.5941 70.4515 51.5957 70.4656 51.5957C70.4703 51.5841 70.4271 51.6312 70.3996 51.7146C70.1374 52.4158 69.8924 53.0724 69.6646 53.6811C69.2343 54.7978 68.9422 55.4775 68.8888 55.4568C68.8362 55.4362 69.0325 54.7193 69.3929 53.5754C69.5955 52.956 69.8138 52.2862 70.0471 51.5726C70.0863 51.4759 70.1279 51.3182 70.3164 51.2224C70.5174 51.1382 70.6815 51.2406 70.7718 51.2984C70.9501 51.4239 71.1079 51.5428 71.2791 51.6742C71.6144 51.9352 71.9513 52.2201 72.2834 52.5273C72.9478 53.1426 73.5273 53.791 74.0102 54.4162L73.7307 54.4046C75.3349 52.7181 76.4963 51.5701 76.5568 51.6321Z" fill="#263238"/>
<path d="M73.441 141.401C79.8958 140.116 86.7738 140.865 93.1704 143.997C101.048 147.853 107.027 154.707 110.005 163.293C112.984 171.88 112.604 181.172 108.937 189.458C101.368 206.564 81.9775 214.003 65.7126 206.041C57.8342 202.184 51.8561 195.331 48.8776 186.745C45.9 178.158 46.2792 168.866 49.9464 160.58C54.5401 150.202 63.4848 143.381 73.441 141.401ZM85.0407 206.386C94.3318 204.538 102.676 198.175 106.962 188.491C110.383 180.76 110.737 172.09 107.959 164.078C105.181 156.066 99.6024 149.673 92.2517 146.074C84.901 142.475 76.6574 142.103 69.0405 145.025C61.4236 147.947 55.3442 153.815 51.9228 161.546C48.5015 169.277 48.1473 177.948 50.9256 185.958C53.7038 193.97 59.2822 200.364 66.6329 203.962C72.5993 206.885 79.0187 207.585 85.0407 206.386Z" fill="#455A64"/>
<path d="M79.3927 210.899C74.4936 210.899 69.6164 209.775 65.0494 207.54C56.7909 203.496 50.523 196.312 47.4016 187.312C44.2795 178.312 44.6776 168.571 48.5222 159.884C53.1434 149.442 62.3497 141.926 73.1484 139.779C80.1835 138.381 87.3355 139.32 93.8327 142.5C102.091 146.544 108.358 153.728 111.48 162.728C114.602 171.728 114.204 181.47 110.36 190.156C106.522 198.83 99.6907 205.416 91.1228 208.703C87.301 210.169 83.3394 210.899 79.3927 210.899ZM79.4587 144.729C76.1316 144.729 72.7966 145.344 69.5779 146.579C62.3544 149.35 56.5898 154.914 53.3452 162.245C50.1005 169.577 49.7645 177.797 52.3998 185.394C55.0335 192.99 60.3229 199.054 67.2944 202.467C72.7754 205.15 78.8101 205.943 84.7481 204.764C93.8657 202.95 101.637 196.607 105.538 187.796C108.781 180.463 109.118 172.242 106.483 164.646C103.849 157.049 98.5591 150.986 91.5884 147.573C87.7234 145.681 83.5977 144.729 79.4587 144.729Z" fill="#455A64"/>
<path d="M0.304971 141.588L0.593158 140.843C1.21115 139.247 2.56335 138.318 3.61323 138.767L51.1531 159.111C51.3879 159.211 51.4656 159.581 51.3282 159.938L49.303 165.174C49.1648 165.53 48.8633 165.737 48.6293 165.638L1.08865 145.294C0.0379866 144.843 -0.313021 143.184 0.304971 141.588Z" fill="#455A64"/>
<path d="M44.7082 84.0142L38.9892 103.911L41.8554 144.458L33.4242 145.578C33.4242 145.578 23.7601 111.024 24.7244 104.821C25.6887 98.6195 29.5906 80.395 29.5906 80.395L44.7082 84.0142Z" fill="#FFBE9D"/>
<path d="M41.8347 144.171L45.7609 151.223L48.214 157.854L44.5108 156.32C44.5108 156.32 42.9254 164.297 42.3035 164.509C41.6808 164.721 39.899 164.07 40.0788 162.539C40.0788 162.539 39.1899 163.478 38.0772 163.235C36.9645 162.991 36.6991 162.235 36.8216 160.779C36.8216 160.779 35.5236 161.891 34.7486 161.198C33.9735 160.505 34.0458 159.3 34.0458 159.3C34.0458 159.3 32.3567 159.454 32.125 158.53C31.8926 157.607 31.8329 154.977 32.0316 153.974C32.2303 152.971 33.0407 148.875 33.0407 148.875L33.4239 145.579L41.8347 144.171Z" fill="#FFBE9D"/>
<path d="M40.912 157.941C40.817 157.922 40.5532 158.936 40.3223 160.206C40.0922 161.476 39.9823 162.522 40.0781 162.541C40.1731 162.56 40.4369 161.546 40.6678 160.276C40.8979 159.004 41.0078 157.96 40.912 157.941Z" fill="#EB996E"/>
<path d="M37.4698 157.019C37.3748 156.999 37.14 157.807 36.9461 158.824C36.7521 159.841 36.672 160.682 36.767 160.702C36.8621 160.721 37.0968 159.914 37.2908 158.896C37.4848 157.88 37.5649 157.039 37.4698 157.019Z" fill="#EB996E"/>
<path d="M34.6011 156.17C34.4959 156.163 34.4166 156.884 34.2933 157.733C34.1614 158.579 33.9493 159.256 34.0459 159.299C34.1268 159.34 34.4967 158.7 34.6396 157.794C34.7699 156.894 34.689 156.175 34.6011 156.17Z" fill="#EB996E"/>
<path d="M44.7967 154.018C44.6994 154 44.4528 155 44.1685 156.233C43.8858 157.466 43.6715 158.474 43.7657 158.505C43.8568 158.534 44.2243 157.566 44.5101 156.319C44.7975 155.074 44.891 154.035 44.7967 154.018Z" fill="#EB996E"/>
<path d="M24.2601 118.22C24.2601 117.544 21.6178 108.092 22.4203 103.195C23.2228 98.2991 32.8036 65.205 34.0875 62.8412C35.3714 60.4775 38.1818 59.1948 38.1818 59.1948C38.1818 59.1948 43.8796 61.9971 45.8058 69.2569C47.732 76.5166 47.732 85.6338 47.732 85.6338L40.0272 105.725L40.9467 117.136L24.2601 118.22Z" fill="#002366"/>
<path d="M47.2372 84.9689C47.1595 84.9615 47.3087 83.4864 47.2325 81.107C47.2011 79.9177 47.0754 78.5054 46.8517 76.9518C46.6067 75.4024 46.2509 73.7134 45.7374 71.9823C45.2089 70.2562 44.5752 68.6589 43.9274 67.2433C43.2599 65.8376 42.5893 64.607 41.9643 63.6151C40.7236 61.6238 39.7946 60.508 39.8543 60.4551C39.8755 60.4353 40.1197 60.7021 40.5437 61.2034C40.9748 61.6981 41.5481 62.4629 42.2038 63.4449C42.8657 64.4244 43.5701 65.6526 44.2643 67.0657C44.9388 68.4887 45.5913 70.1026 46.1269 71.8518C46.6467 73.6052 46.9961 75.3198 47.2239 76.8915C47.4296 78.4674 47.527 79.8978 47.5215 81.0995C47.523 82.3004 47.4736 83.2725 47.3911 83.9382C47.3189 84.6063 47.2655 84.9722 47.2372 84.9689Z" fill="#263238"/>
<path d="M46.7437 89.1723C46.7931 89.1921 46.505 90.1559 45.9466 91.6781C45.3907 93.201 44.5473 95.2732 43.572 97.5371C42.629 99.7422 41.7762 101.735 41.0914 103.337C40.4672 104.825 40.0832 105.748 40.0274 105.726C39.978 105.706 40.2669 104.743 40.8245 103.22C41.3804 101.697 42.2246 99.6241 43.1998 97.3603C44.1429 95.156 44.9949 93.163 45.6804 91.5616C46.3039 90.0733 46.6879 89.15 46.7437 89.1723Z" fill="#263238"/>
<path d="M40.4743 106.504C40.406 106.623 38.2529 105.04 35.1959 104.09C32.1468 103.108 29.5209 103.179 29.5264 103.04C29.5248 102.989 30.1766 102.903 31.2366 102.945C32.2944 102.985 33.7589 103.188 35.3137 103.677C36.8669 104.171 38.1948 104.852 39.0978 105.432C40.0032 106.011 40.5026 106.462 40.4743 106.504Z" fill="#263238"/>
<path d="M90.6191 163.417C90.6922 163.507 84.502 169.205 76.7932 176.143C69.0821 183.082 62.7734 188.633 62.7003 188.543C62.6273 188.453 68.8167 182.756 76.527 175.816C84.2358 168.879 90.5453 163.327 90.6191 163.417Z" fill="white"/>
<path d="M98.5814 163.417C98.6552 163.507 93.4412 168.348 86.9369 174.228C80.4312 180.111 75.0985 184.804 75.0247 184.714C74.9509 184.624 80.1642 179.784 86.67 173.902C93.175 168.023 98.5084 163.327 98.5814 163.417Z" fill="white"/>
<path d="M110.308 175.019C110.308 175.019 110.285 174.841 110.261 174.494C110.239 174.131 110.208 173.619 110.167 172.953C110.148 172.613 110.126 172.234 110.103 171.818C110.061 171.403 109.976 170.952 109.907 170.462C109.833 169.972 109.753 169.445 109.669 168.882C109.604 168.314 109.404 167.738 109.265 167.112C108.722 164.605 107.606 161.642 105.847 158.502C104.073 155.375 101.514 152.108 98.0295 149.334C97.5921 148.992 97.1493 148.645 96.7009 148.294C96.2345 147.972 95.7429 147.678 95.2568 147.363C94.7605 147.066 94.291 146.705 93.7586 146.452C93.2324 146.187 92.7008 145.918 92.1645 145.647C91.8959 145.514 91.625 145.378 91.3533 145.244C91.0706 145.135 90.7872 145.026 90.5013 144.917C89.9305 144.698 89.3549 144.478 88.7738 144.256C88.1872 144.052 87.5724 143.92 86.9654 143.747C86.3513 143.601 85.7474 143.374 85.1075 143.305C83.8385 143.116 82.5562 142.841 81.2268 142.834C80.5648 142.81 79.8981 142.742 79.2267 142.753C78.5545 142.789 77.8777 142.826 77.1961 142.863C76.856 142.888 76.5113 142.886 76.1713 142.934L75.1481 143.1C74.465 143.218 73.7708 143.303 73.0837 143.452C71.7299 143.84 70.3267 144.129 68.9933 144.715C67.6168 145.178 66.3235 145.894 64.9933 146.564C64.3454 146.933 63.7243 147.365 63.0835 147.764C62.7694 147.976 62.4349 148.156 62.1357 148.394L61.2327 149.106C59.9857 150.006 58.8958 151.132 57.7541 152.216C56.7222 153.417 55.6386 154.592 54.7489 155.955L54.0437 156.948L53.4265 158.009L52.8101 159.077C52.5957 159.429 52.3994 159.792 52.2385 160.177C51.8929 160.932 51.5459 161.69 51.1972 162.451C50.9208 163.244 50.6436 164.04 50.3648 164.84C49.3652 168.077 48.8265 171.516 48.7826 175.014C48.8265 178.514 49.3637 181.954 50.3625 185.193C50.6405 185.992 50.9177 186.788 51.1941 187.582C51.5427 188.344 51.8898 189.102 52.2353 189.857L52.4968 190.422L52.8062 190.958L53.4226 192.027L54.0398 193.088L54.745 194.081C55.6347 195.444 56.7183 196.62 57.7501 197.821C58.8919 198.905 59.9826 200.032 61.2296 200.932L62.1326 201.643C62.4318 201.882 62.7671 202.062 63.0804 202.273C63.722 202.674 64.3431 203.104 64.9909 203.473C66.3211 204.145 67.6152 204.86 68.9918 205.323C70.3259 205.91 71.7284 206.199 73.0829 206.586C73.77 206.736 74.4642 206.82 75.1473 206.939L76.1705 207.105C76.5113 207.152 76.8553 207.15 77.1961 207.175C77.8784 207.212 78.5553 207.249 79.2267 207.286C79.8989 207.297 80.5656 207.229 81.2275 207.205C82.557 207.197 83.8393 206.922 85.1082 206.732C85.7482 206.664 86.3521 206.436 86.9662 206.29C87.5739 206.116 88.188 205.985 88.7746 205.78C89.3557 205.557 89.932 205.337 90.5029 205.119C90.788 205.01 91.0722 204.901 91.3549 204.792C91.6266 204.657 91.8967 204.522 92.1661 204.388C92.7032 204.117 93.2348 203.849 93.7601 203.583C94.2925 203.33 94.7621 202.969 95.2584 202.672C95.7445 202.358 96.236 202.063 96.7025 201.741C97.1501 201.39 97.5929 201.043 98.0311 200.7C101.516 197.927 104.074 194.659 105.847 191.532C107.606 188.392 108.722 185.43 109.266 182.923C109.405 182.297 109.605 181.721 109.669 181.153C109.753 180.591 109.833 180.064 109.907 179.573C109.976 179.084 110.061 178.633 110.103 178.218C110.126 177.802 110.148 177.423 110.167 177.083C110.208 176.417 110.239 175.905 110.261 175.543C110.285 175.198 110.308 175.019 110.308 175.019C110.308 175.019 110.313 175.197 110.303 175.545C110.29 175.909 110.272 176.422 110.25 177.091C110.236 177.432 110.221 177.812 110.205 178.23C110.17 178.648 110.091 179.101 110.028 179.593C109.96 180.086 109.886 180.616 109.807 181.183C109.749 181.755 109.553 182.335 109.42 182.965C108.897 185.492 107.797 188.482 106.044 191.657C104.276 194.82 101.712 198.128 98.2062 200.944C97.7657 201.291 97.3205 201.643 96.8689 202C96.3994 202.327 95.9039 202.627 95.4146 202.946C94.9152 203.248 94.4409 203.614 93.9046 203.872C93.3738 204.142 92.8382 204.415 92.2964 204.691C92.0247 204.827 91.7522 204.964 91.4782 205.102C91.1931 205.213 90.9065 205.323 90.6183 205.435C90.0428 205.658 89.4609 205.883 88.8743 206.11C88.2814 206.318 87.6611 206.453 87.0478 206.631C86.4275 206.78 85.8173 207.012 85.1703 207.083C83.888 207.279 82.5907 207.56 81.2472 207.572C80.5781 207.599 79.9036 207.668 79.2236 207.659C78.5436 207.624 77.8588 207.588 77.1694 207.553C76.8246 207.528 76.4768 207.531 76.132 207.484L75.0963 207.319C74.4053 207.2 73.7017 207.116 73.0068 206.966C71.6349 206.578 70.2144 206.286 68.863 205.696C67.4692 205.228 66.157 204.508 64.8095 203.83C64.1531 203.457 63.5233 203.022 62.8731 202.618C62.5551 202.404 62.2151 202.222 61.912 201.981L60.9963 201.262C59.7329 200.351 58.6265 199.213 57.469 198.115C56.4215 196.901 55.3237 195.71 54.4207 194.331L53.7053 193.325L53.0787 192.251L52.4536 191.169L52.1403 190.626L51.8749 190.055C51.5239 189.289 51.1721 188.521 50.8187 187.75C50.5384 186.946 50.2573 186.139 49.9746 185.329C48.96 182.048 48.4151 178.562 48.3711 175.016C48.4151 171.471 48.9616 167.986 49.9761 164.706C50.2588 163.897 50.54 163.09 50.8211 162.286C51.1744 161.515 51.5262 160.747 51.8772 159.982C52.0406 159.593 52.2392 159.225 52.4568 158.868L53.0818 157.786L53.7084 156.711L54.423 155.706C55.3253 154.327 56.4238 153.137 57.4706 151.923C58.6273 150.825 59.7337 149.688 60.9971 148.777L61.9127 148.058C62.2158 147.817 62.5551 147.635 62.8731 147.422C63.5225 147.017 64.1523 146.582 64.8087 146.21C66.1562 145.532 67.4684 144.812 68.8622 144.344C70.2136 143.754 71.6333 143.463 73.0052 143.075C73.7001 142.924 74.4037 142.841 75.0947 142.722L76.1305 142.558C76.4752 142.511 76.8231 142.513 77.1678 142.489C77.858 142.454 78.5428 142.418 79.222 142.383C79.902 142.374 80.5758 142.443 81.2448 142.469C82.5884 142.481 83.8856 142.762 85.1679 142.957C85.815 143.029 86.4251 143.26 87.0455 143.41C87.6595 143.588 88.2791 143.723 88.8719 143.93C89.4585 144.158 90.0404 144.382 90.616 144.605C90.9042 144.717 91.1908 144.827 91.475 144.938C91.7491 145.076 92.0216 145.213 92.2933 145.349C92.8343 145.625 93.3706 145.898 93.9007 146.168C94.437 146.426 94.9105 146.792 95.4107 147.094C95.9007 147.413 96.3954 147.713 96.865 148.04C97.3157 148.396 97.7618 148.748 98.2023 149.096C101.708 151.911 104.272 155.221 106.041 158.382C107.795 161.558 108.894 164.548 109.417 167.075C109.551 167.706 109.745 168.286 109.804 168.857C109.883 169.424 109.957 169.954 110.026 170.447C110.089 170.94 110.167 171.393 110.202 171.811C110.219 172.228 110.234 172.608 110.247 172.95C110.271 173.619 110.289 174.132 110.301 174.496C110.313 174.842 110.308 175.019 110.308 175.019Z" fill="#263238"/>
<path d="M98.9146 192.254C98.8895 192.231 99.1816 191.85 99.6888 191.149C100.197 190.449 100.897 189.407 101.654 188.053C103.174 185.364 104.811 181.278 105.286 176.504C105.764 171.73 104.968 167.375 104.012 164.412C103.539 162.922 103.059 161.75 102.701 160.955C102.344 160.159 102.133 159.723 102.162 159.705C102.175 159.698 102.242 159.799 102.359 159.997C102.471 160.198 102.652 160.486 102.843 160.88C103.248 161.657 103.773 162.82 104.286 164.313C105.321 167.281 106.178 171.698 105.693 176.549C105.21 181.4 103.501 185.532 101.902 188.209C101.105 189.558 100.363 190.581 99.8137 191.253C99.5475 191.596 99.3151 191.839 99.1651 192.011C99.0104 192.18 98.9248 192.264 98.9146 192.254Z" fill="#263238"/>
<path d="M97.2857 195.223C97.3415 195.326 97.0988 195.583 96.7439 195.796C96.3882 196.01 96.0552 196.099 95.9987 195.996C95.9429 195.892 96.1856 195.636 96.5405 195.423C96.8962 195.209 97.23 195.119 97.2857 195.223Z" fill="#263238"/>
<path d="M56.7998 188.922C56.7865 188.928 56.7213 188.794 56.609 188.534C56.5022 188.271 56.3232 187.892 56.1473 187.382C55.7672 186.372 55.2984 184.873 54.9011 182.971C54.0915 179.194 53.764 173.662 55.2474 167.89C56.7291 162.115 59.6605 157.509 62.1678 154.674C63.421 153.242 64.5439 152.195 65.3559 151.523C65.7524 151.175 66.0885 150.943 66.306 150.772C66.5275 150.606 66.6484 150.525 66.6563 150.538C66.6775 150.567 66.233 150.943 65.458 151.651C64.6814 152.358 63.5977 153.432 62.3837 154.876C59.9542 157.738 57.1037 162.307 55.6423 168.002C54.1802 173.694 54.455 179.15 55.1845 182.909C55.5418 184.801 55.9651 186.302 56.2972 187.325C56.6271 188.348 56.8312 188.908 56.7998 188.922Z" fill="white"/>
<path d="M75.0251 148.439C75.0345 148.557 74.2202 148.726 73.2065 148.814C72.1927 148.903 71.3635 148.879 71.3541 148.76C71.3447 148.642 72.159 148.474 73.1727 148.385C74.1865 148.297 75.0157 148.321 75.0251 148.439Z" fill="white"/>
</svg>
