<svg width="264" height="350" viewBox="0 0 264 350" fill="none" xmlns="http://www.w3.org/2000/svg">
<path d="M232.778 324.497L229.311 339.101L224.117 339.072L223.927 324.497H232.778Z" fill="#C97E67"/>
<path d="M189.09 325.12L179.224 339.102L175.378 334.165L181.316 323.198L189.09 325.12Z" fill="#C97E67"/>
<path d="M214.741 132.584C216.534 131.565 218.682 131.454 220.186 131.543C219.798 131.143 219.038 130.997 219.038 130.997C219.97 130.859 222.05 131.783 222.05 131.783C235.014 126.788 237.051 145.877 236.779 150.311C236.509 154.746 241.135 156.194 247.88 159.688C260.749 166.355 261.88 175.282 261.88 175.282C261.779 175.341 261.675 175.408 261.563 175.485C260.925 174.404 259.61 172.372 258.502 172.066C258.544 172.164 259.812 174.863 260.285 176.409C256.488 179.297 249.386 185.696 244.436 190.233C244.458 189.346 244.422 188.087 244.098 187.422L243.487 191.105C240.838 193.54 239.012 195.253 239.012 195.253C239.339 191.669 222.804 172.758 214.177 167.093C212.077 164.002 211.33 158.54 211.274 158.11C211.637 162.44 212.378 164.87 213.04 166.238C205.736 159.514 209.988 135.285 214.741 132.584Z" fill="#33353B"/>
<path d="M214.687 167.376C214.644 167.395 218.852 169.581 222.018 168.715C224.996 167.903 226.942 164.042 226.9 164.033C225.64 163.783 225.276 162.05 225.303 154.604L224.732 154.716L215.147 156.614C215.147 156.614 215.365 159.631 215.372 162.472C215.378 164.858 215.234 167.121 214.687 167.376Z" fill="#C97E67"/>
<path d="M215.147 156.613C215.147 156.613 215.366 159.63 215.372 162.471C220.736 162.32 223.571 157.427 224.733 154.715L215.147 156.613Z" fill="#B2604D"/>
<path d="M225.723 153.672C225.723 153.672 228.534 149.23 229.209 145.433C229.691 142.721 228.31 132.671 218.211 134.119C218.211 134.119 215.277 134.408 212.52 136.27C210.328 137.751 207.163 140.948 210.701 149.718L211.62 152.681L225.723 153.672Z" fill="#33353B"/>
<path d="M176.944 330.332L182.025 330.487L187.524 330.655C187.524 330.655 200.228 316.512 207.353 293.839C207.52 293.312 207.695 292.779 207.88 292.239C211.78 280.868 219.865 266.595 224.125 253.676C224.803 251.618 225.412 249.681 225.958 247.848C226.133 247.26 226.304 246.684 226.466 246.116C229.606 235.207 230.515 228.045 231.352 220.392L200.589 220.638C200.589 220.638 195.622 272.894 176.944 330.332Z" fill="#263238"/>
<path d="M204.894 202.961C204.972 217.6 202.747 223.881 202.747 223.881C202.747 223.881 215.919 230.573 231.574 225.647C231.758 225.589 243.348 223.264 243.348 223.264C243.086 222.671 239.889 212.544 239.633 212.001C236.328 204.903 235.874 201.461 235.482 199.279C234.755 195.205 234.739 190.99 235.101 187.014C236.056 176.49 238.897 167.753 238.897 167.753C234.632 166.783 230.637 165.078 226.197 163.413C225.176 164.684 222.055 166.015 219.346 165.954C216.228 165.885 215.217 164.55 215.379 163.093C212.055 164.942 209.404 166.689 209.404 166.689C206.58 171.595 200.851 176.359 200.437 183.884C200.334 185.735 204.892 202.551 204.894 202.961Z" fill="#002366"/>
<path d="M187.034 181.213C191.55 175.937 203.251 164.496 215.325 163.093L204.906 183.391C204.906 183.391 204.32 186.87 201.235 188.897C193.677 193.864 184.068 196.059 184.068 196.059C184.068 196.059 177.561 193.22 168.665 186.702C165.873 184.656 160.966 176.852 160.966 176.852L162.29 172.424C162.29 172.424 170.62 177.081 173.596 178.424C175.291 179.19 179.195 181.018 181.946 182.31C183.696 183.132 185.776 182.682 187.034 181.213Z" fill="#FFFFF8"/>
<path d="M213.357 159.304C213.357 159.304 226.047 159.513 226.056 151.609C226.065 143.704 227.708 138.407 219.606 137.939C211.504 137.471 209.926 140.486 209.282 143.123C208.637 145.761 210.056 159.046 213.357 159.304Z" fill="#C97E67"/>
<path d="M213.827 137.745C213.827 137.745 217.301 147.019 222.634 148.391C227.966 149.762 230.279 148.333 230.279 148.333C230.279 148.333 226.189 145.084 225.34 139.412C225.34 139.412 216.448 133.331 213.827 137.745Z" fill="#33353B"/>
<path d="M214.687 138.499C214.687 138.499 212.092 140.569 211.46 142.582C210.827 144.595 210.543 148.739 209.335 148.598C209.335 148.598 206.717 142.294 209.659 138.728C212.778 134.948 214.687 138.499 214.687 138.499Z" fill="#33353B"/>
<path d="M162.291 172.424C162.291 172.424 160.502 165.976 153.414 166.887C152.6 167.142 150.223 168.09 151.743 170.635C152.863 172.511 153.347 171.543 155.109 174.064C156.871 176.585 158.783 177.154 160.968 176.852L162.291 172.424Z" fill="#C97E67"/>
<path d="M229.486 338.286C229.486 338.286 229.068 341.178 230.147 344.273C230.147 344.273 230.998 348.147 227.183 348.219C223.368 348.291 222.432 347.931 222.864 345.556C223.296 343.181 224.118 339.073 224.118 339.073L229.486 338.286Z" fill="#C97E67"/>
<path d="M222.503 349.873C222.503 349.873 222.585 349.923 222.743 350H230.21C230.354 349.923 230.421 349.873 230.421 349.873C230.852 347.929 230.148 344.272 230.148 344.272C225.827 348.231 223.124 344.174 223.124 344.174C222.422 345.866 222.503 349.873 222.503 349.873Z" fill="#33353B"/>
<path d="M166.186 345.944C166.186 345.944 173.219 338.137 175.379 334.165L180.608 336.844L168.918 347.823L166.183 347.463L166.186 345.944Z" fill="#C97E67"/>
<path d="M161.822 349.999H171.446C172.373 349.307 173.238 347.704 174.314 345.551C174.887 344.404 176.176 343.771 177.499 343.423V349.925H179.495L181.386 343.013C182.63 340.724 181.484 338.649 180.607 336.842C179.588 336.84 176.847 337.537 171.652 343.392C169.943 345.313 168.057 346.001 166.186 345.941C166.159 345.958 166.133 345.973 166.109 345.982C162.975 347.392 162.078 349.144 161.822 349.999Z" fill="#33353B"/>
<path d="M215.379 163.093C215.379 163.093 208.037 181.231 207.821 184.902C207.605 188.573 206.957 244.931 206.957 244.931C206.957 244.931 207.389 247.522 202.423 246.443C197.456 245.363 196.161 244.283 196.161 244.283C196.161 244.283 200.911 209.518 199.616 197.426C198.32 185.334 209.548 165.612 209.548 165.612L215.379 163.093Z" fill="#FFFFF8"/>
<path d="M182.024 330.488L187.524 330.656C187.524 330.656 200.227 316.513 207.353 293.839C207.519 293.312 207.694 292.779 207.88 292.239C211.78 280.869 219.864 266.596 224.124 253.676C224.802 251.618 225.412 249.681 225.958 247.848C226.133 247.261 226.303 246.684 226.465 246.116L221.935 242.679C221.935 242.679 208.334 264.704 204.123 285.431C200.465 303.436 185.816 325.1 182.024 330.488Z" fill="#3F3F3F"/>
<path d="M221.462 287.362C221.385 297.442 221.894 320.616 223.207 330.21H228.079C230.771 330.21 232.114 330.171 232.114 330.171C235.407 313.49 237.75 299.688 239.456 287.794C240.855 278.034 242.099 269.666 243.055 262.463C244.018 255.214 244.688 249.144 244.927 244.016C244.964 243.208 244.992 242.422 245.007 241.66C245.022 240.894 245.026 240.149 245.02 239.425L218.439 236.834C218.774 254.495 221.506 281.504 221.462 287.362Z" fill="#263238"/>
<path d="M228.079 330.209C230.771 330.209 232.114 330.17 232.114 330.17C235.407 313.489 237.75 299.687 239.456 287.793C240.855 278.033 242.099 269.666 243.055 262.463C244.019 255.213 244.688 249.144 244.927 244.016L235.174 249.753C235.174 249.753 241.399 251.949 239.024 268.576C236.649 285.202 231.385 327.855 228.079 330.209Z" fill="#3F3F3F"/>
<path d="M226.823 243.853C226.823 243.853 228.695 250.618 235.173 249.754C241.651 248.89 250.862 245.003 250.862 245.003C250.862 245.003 248.094 236.256 244.652 224.764C240.485 210.852 235.326 192.916 232.895 181.604C232.212 178.434 231.746 175.786 231.573 173.891L226.199 163.463C226.199 163.463 218.186 181.448 217.754 185.983C217.322 190.518 226.823 243.853 226.823 243.853Z" fill="#FFFFF8"/>
<path d="M227.11 195.484C227.399 202.826 229.127 217.077 244.529 224.706C244.57 224.725 244.611 224.747 244.652 224.764C240.485 210.852 235.326 192.916 232.895 181.604C230.067 185.831 226.953 191.441 227.11 195.484Z" fill="#FFF2E2"/>
<path d="M140.482 135.638L135.625 140.495L154.943 159.813L159.8 154.955L140.482 135.638Z" fill="#002366"/>
<path d="M261.388 259.694L259.693 261.388C256.359 264.722 250.954 264.722 247.62 261.388L153.088 166.856C149.754 163.522 149.754 158.117 153.088 154.783L154.782 153.088C158.116 149.754 163.522 149.754 166.856 153.088L261.388 247.62C264.722 250.955 264.722 256.36 261.388 259.694Z" fill="#33353B"/>
<path d="M23.6635 23.6638C-7.88784 55.2152 -7.88784 106.37 23.6635 137.922C55.2149 169.473 106.37 169.473 137.922 137.922C169.473 106.37 169.473 55.2152 137.922 23.6638C106.37 -7.88794 55.2149 -7.88794 23.6635 23.6638ZM131.628 131.628C103.552 159.704 58.0325 159.704 29.9568 131.628C1.88112 103.552 1.88112 58.0325 29.9568 29.9568C58.0325 1.88108 103.552 1.88108 131.628 29.9568C159.704 58.0325 159.704 103.552 131.628 131.628Z" fill="#33353B"/>
<path d="M233.291 185.307L226.198 163.463C226.218 163.472 235.157 166.123 239.654 168.395C239.654 168.395 242.464 172.018 244.204 180.379C244.204 180.379 246.041 200.45 241.938 207.792C241.938 207.792 228.982 210.383 208.253 203.257V198.507C208.253 198.507 230.926 199.694 235.568 200.234L233.291 185.307Z" fill="#C97E67"/>
<path d="M226.198 163.463C226.198 163.463 239.347 164.39 242.514 171.443C245.681 178.497 246.688 201.962 242.658 208.872C242.658 208.872 237.108 210.452 227.294 208.617C227.173 208.594 227.052 208.571 226.931 208.548C226.931 208.548 223.8 200.882 226.607 199.37C226.607 199.37 234.884 199.802 234.02 197.067C233.157 194.332 226.198 163.463 226.198 163.463Z" fill="#FFFFF8"/>
<path d="M210.577 199.77C210.577 199.77 208.77 197.581 208.385 195.346C208 193.111 206.805 191.454 203.687 191.044C200.57 190.634 199.23 190.59 199.237 191.469C199.245 192.348 201.785 198.483 206.258 202.147C210.732 205.811 210.577 199.77 210.577 199.77Z" fill="#C97E67"/>
</svg>
